<?xml version="1.0" encoding="utf-8"?>
<!DOCTYPE svg PUBLIC "-//W3C//DTD SVG 1.1//EN" "http://www.w3.org/Graphics/SVG/1.1/DTD/svg11.dtd">
<svg version="1.1" id="Layer_1" xmlns="http://www.w3.org/2000/svg" xmlns:xlink="http://www.w3.org/1999/xlink" x="0px" y="0px"
	 viewBox="0 0 186.8 408.8" enable-background="new 0 0 186.8 408.8" xml:space="preserve">
<g id="onderlichaam">
	<path d="M129.7,148.5c0,0,2.4,16.7,0.5,26.2c0,0-37.2-2.2-42.3-1.7c-5.1,0.5-1.8-7.4-1.8-7.4l5.8-11.1l8-9l16.2-3.7l14.7,2.1
		L129.7,148.5z"/>
	<path d="M130.1,172c0,0,25.3,20.1,32.1,53.1c9.4,45.1,7.3,85.2-2.3,96.7c-5,6-10.1-20.3-10.1-20.3s-36.5-7.4-39.8-10.7
		s-9-20.4-6.3-36.5c2.6-16.1-9.9-31.4-10.7-33.4c-0.8-2.1-3.8-27.5-3.8-27.5l3.8-22.4L130.1,172z"/>
	<path d="M93,267.2c0,0,3.7,20.2,4.6,32.5c0.7,8.8,16.3,20.9,18.1,25.7c1.8,4.8,15.5,15.1,15.5,15.1c12,1.3,19.3-0.6,23.3,2.7
		s5.2-11.2,5.7-12c0.5-0.8,5.1-48.7-3.6-56.1c-8.6-7.4-15.5-4.1-15.5-4.1s-16.8,11.5-17.6,10.9C122.8,281.5,93,267.2,93,267.2z"/>
	<path d="M156.3,304.8c0,0,9.6,9.6,12.4,32.9c1,8.2,0.2,15.5-3.8,22.7s-9.7,11.2-12.8,11.2s-6.3,1-9.9,2.1c-3.6,1-8.4-6.1-10.9-10.5
		c-2.5-4.4,2.1-10.7,3.6-14.5c1.5-3.8,4.1-19.1,4.1-19.1l1.8-6.9L156.3,304.8z"/>
	<path d="M138.3,349.7c-1,0.8,0.8,9.2-5.6,9.9c-6.3,0.8-12.5-9.2-12.2-13.5c0.2-4.4,2.8-21.6,0.5-26.2c-2.3-4.6,5.9-10.2,5.9-10.2
		l9.7-3.8l10.2-1.3l6.1,19.4l0.5,16.4L138.3,349.7z"/>
	<path d="M162.5,359.1c0.2,0.5,2.7,26.5,2.8,32.3c0.2,6.3-2.8,6.6-3.3,7.1c-0.5,0.5-6.9,1.8-7.8,1.8c-0.9,0-10.3-10-10.3-10
		s-2.5-16.4-4.4-20.3c-1.8-4,2.5-6.2,2.5-6.2L162.5,359.1z"/>
	<path d="M145.3,388.7c0,0-2.5,3.8-2.5,9.6c0,5.8-0.4,10.2,3.1,10c3.4-0.2,26.4,0.4,26.4,0.4s15.5,1.5,14.5-4.7
		c-0.9-6.2-2.8-6.9-5.7-6.9c0,0-9.1,0-10.2-1.5c-1.1-1.5-3.7-6.1-6.8-6.9C161.4,388,145.3,388.7,145.3,388.7z"/>
	<path d="M63.2,174.6c-1,0.8-7,4.3-8,9.6c-1.1,5.4-5.9,23.5-6.3,27.8c-0.5,4.4-3.3,18.4,0.2,30.8c3.6,12.5,28.6,33.2,28.6,33.2
		l20.9,2.1l11.5-10.5l-6.9-39.2l2.8-49.2L96.2,161l-31.6,6.9L63.2,174.6z"/>
	<path d="M55.8,191.1c0,0-19.9,21-22.6,49c-0.8,8.4,3.5,25.1,0.4,40.2c-3.6,17.4,4.2,22.7,4.2,35.2c0,12.5,5.9,12.9,10.9,21.6
		c5,8.7,23.7,15.1,26,11.2c2.3-3.8,1.5-11.5,1.5-11.5s1.5,0,7.4-10.2c5.9-10.2,16.1-14.7,19.4-20.8c3.1-5.9-1.6-9.6,0.9-16.5
		c2.3-6.4,0.7-4.3,2.8-11.5c2.1-7.1,5-28.8,5-28.8s-20.7-10.7-21.6-11.2S55.8,191.1,55.8,191.1z"/>
	<path d="M48.8,328.6c0,0-8,17.7-7.9,24.3c0.2,8.3,0.4,20.7,6.1,21c9.7,0.6,19.9,1.8,24.3,2.8c4.4,1,6.9-1,5.4-6.3
		c-1.5-5.4-0.9-15.7-0.9-16.7c0-1-3.4-11.2-3.2-11.9c0.2-0.8-10.2-10.2-10.2-10.2L48.8,328.6z"/>
	<path d="M63.3,359.9c0,0,9.9,3.1,13.5,0.8c3.6-2.3,10.7-11.5,9.7-19.9c-1-8.4-0.6-26.9-1.7-30c-1.1-3.1-6.3,1.4-6.3,1.4l-10.5,5.1
		l-4.6,11.5L63.3,359.9z"/>
	<path d="M48.8,371.4c0,0-0.5,9,0.5,14c1,5.1-2.3,5.4-4.4,7.9c-2.1,2.5-11.2,0.5-14.3,4.1s-3.1,12,0.5,11.5
		c3.6-0.5,28.5-0.8,28.5-0.8l13.5-0.5c0,0,2.4-7.6-0.2-11.4c-2.6-3.8-3.9-6.7-3.6-10.5c0.3-3.8,2.3-9.4,1.8-13s-9.9-4.8-9.9-4.8
		L48.8,371.4z"/>
</g>
<g id="bovenlichaam_1_">
	<circle fill="none" stroke="#FFFFFF" stroke-miterlimit="10" cx="11.7" cy="211.2" r="3.1"/>
	<circle fill="none" stroke="#FFFFFF" stroke-miterlimit="10" cx="14.8" cy="219.6" r="3.1"/>
	<circle fill="none" stroke="#FFFFFF" stroke-miterlimit="10" cx="20.9" cy="222.7" r="3.1"/>
	<circle fill="none" stroke="#FFFFFF" stroke-miterlimit="10" cx="34.7" cy="213.5" r="3.1"/>
	<path fill="#873300" d="M12.3,208.4c0.2-0.2,0.5-0.4,0.7-0.5c0.2-0.2,0.5-0.4,0.6-0.6c-0.2-0.4-0.3-0.7-0.3-1
		c0-0.4,0.1-0.6,0.2-0.8c0.2-0.5,0.5-1,0.9-1.5c0.9-1.5,1.8-3,2.8-4.5c0.9-1.5,1.8-3,2.8-4.5c0,0,0.8-3.7,0.1-7.6
		c-0.8-4.1,10.4-3.8,13.3-4.7c2.4-0.7,4.6,7,4.5,7.1l-3.2,3.2v0.1c-0.6,0.5-1.1,1.1-1.6,1.8c-0.5,0.6-1,1.2-1.4,1.8
		c-0.1,0.2-0.2,0.3-0.3,0.5c-0.1,0.2-0.2,0.3-0.2,0.5c-0.1,0.2-0.1,0.4-0.2,0.5c-0.1,0.2-0.1,0.4-0.1,0.6c0,0.2,0.1,0.4,0.1,0.6
		c0.1,0.2,0.2,0.5,0.2,0.8c0.2,0.7,0.5,1.5,0.8,2.1c0.3,0.8,0.6,1.5,0.8,2.1c0.2,0.5,0.3,1,0.3,1.4c0,0.2-0.1,0.3-0.2,0.5l-0.2,0.5
		c-0.2,0.3-0.2,0.7-0.3,1.1c-0.1,0.4-0.1,0.8,0,1.2c0.1,0.5,0.3,0.9,0.6,1.1c0.3,0.2,0.6,0.5,0.9,0.7l0.6,0.4
		c0.2,0.1,0.2,0.2,0.4,0.3c0.2,0.1,0.3,0.2,0.5,0.4c0.2,0.1,0.3,0.2,0.5,0.3c0.2,0.2,0.2,0.3,0.3,0.5c0.1,0.2,0,0.5-0.1,0.7
		c0,0.1-0.1,0.2-0.2,0.2l-0.8,1c-0.2,0.2-0.5,0.3-0.6,0.4c-0.4,0.1-0.7,0.1-1,0s-0.5-0.2-0.8-0.4c0-0.1-0.1-0.1-0.1-0.1l-0.5-0.5
		c-0.5-0.4-1-0.7-1.5-0.9c-0.5-0.2-1.1-0.5-1.7-0.6c-0.3-0.1-0.5-0.2-0.8-0.2c-0.3,0-0.6,0-0.9,0c-0.3,0-0.7,0.1-1.1,0.2
		c-0.2,0.1-0.3,0.2-0.5,0.3c-0.2,0.1-0.3,0.2-0.5,0.3c-0.6,0.4-1.2,0.8-1.8,1.2c-0.5,0.4-1,0.9-1.2,1.5c-0.2,0.2-0.2,0.5-0.3,0.9
		c0,0.2,0,0.3,0,0.5c0,0.2,0,0.4,0.1,0.5c0,0.2,0.1,0.5,0.2,0.8c0.1,0.3,0.2,0.6,0.2,0.8c0,0.1,0,0.2,0,0.3c0,0.1,0.1,0.2,0.1,0.3
		l0.1,0.7c0.1,0.4,0.1,0.8,0.2,1.1c0.1,0.4,0,0.8-0.2,1c-0.1,0.1-0.2,0.2-0.3,0.2c-0.2,0.1-0.2,0.1-0.4,0.2
		c-0.6,0.2-1.1,0.2-1.5-0.1c-0.4-0.2-0.8-0.6-1.1-1.1l-0.3-0.6c0-0.1-0.1-0.1-0.1-0.2s-0.1-0.1-0.1-0.2c-0.1-0.2-0.2-0.4-0.2-0.5
		c-0.1-0.2-0.2-0.4-0.2-0.5c0,0-0.5-2.2-0.5-2.3c0.2,0.3-0.1-0.6-0.2-0.9c0-0.3-0.1-0.6-0.1-0.9c-0.1,0.2-0.2,0.3-0.4,0.5
		s-0.2,0.3-0.4,0.5l-0.3,0.5c-0.1,0.1-0.1,0.2,0,0.4v0.5c0.1,0.5,0.1,0.8,0,1.3c0,0.5-0.1,0.8-0.2,1.1c-0.1,0.2-0.2,0.3-0.3,0.4
		c-0.2,0.2-0.3,0.2-0.5,0.2c-0.3,0-0.5-0.1-0.8-0.2c-0.2-0.2-0.5-0.3-0.8-0.5c-0.2-0.2-0.5-0.5-0.6-0.8c-0.2-0.3-0.3-0.6-0.5-1.1
		l-0.1-0.8c0.1-0.6,0.2-1.2,0.3-1.8c0.2-0.6,0.3-1.1,0.5-1.8l-0.4-0.3c-0.3,0-0.5,0-0.8-0.1c-0.2-0.1-0.5-0.2-0.6-0.3
		c-0.2-0.2-0.4-0.3-0.6-0.5c-0.2-0.2-0.4-0.5-0.5-0.8c-0.2-0.4-0.2-0.7-0.1-1c0.1-0.3,0.2-0.5,0.3-0.8c0.2-0.2,0.3-0.5,0.5-0.7
		c0.2-0.2,0.4-0.5,0.6-0.7L12.3,208.4z"/>
	<path fill="#A75628" d="M73.4,35.3c0,0,2.8,9.6,3.3,13.8s1.7,12,0.2,15.8l-1.5-0.6l-9,8.6L59.7,84l-3.1,12.9l0.2,19.2
		c0,0,4.3,15.7,4.7,15.5c0.5-0.2,10.8,2.1,11.1,2.4c0.3,0.3,9.6-4.7,9.6-4.7l9.3-21.3l9.8-31.1l4.7-11.9c0,0,1.9-11.2,1.8-11.9
		s-6.7-11.7-6.7-11.7l-3.5-6.8L86.4,32L73.4,35.3z"/>
	<path fill="#873300" d="M59.6,108.7c0,0,5.4,6.7,16.8,2.4c0,0-0.9,5.2-16.1,2.1L59.6,108.7z"/>
	<path d="M153.8,35.7"/>
	<path fill="#A75628" d="M71.8,28.6c0,0-3.1,1.4-2.4,4.7c0.7,3.4,3.7,6.7,6.7,4.4L71.8,28.6z"/>
	<path fill="#FFCE00" d="M76.5,59.9c0,0-6.1,5.7-10.3,8C62,70.2,45.5,81.7,44.8,86.3c-0.8,4.6,1.9,25.6,3.8,31.7
		c1.9,6.1,5.4,22.2,7.3,28.3c1.9,6.1,7.3,15.3,6.1,21s-1.5,9.2-1.5,9.2l0.3,7.7c0,0,8.5-2.7,9.3-5c0,0,1.3,1.9,3.1,4.2
		c1.7,2.2,3.1,7.4,7.1-1.8c2.1-4.7,15.3-12.2,17.8-14.6c3.1-2.9,8.2-6.3,12.9-9.3c2.3-1.5,6-4.5,10.6-5.3c4.6-0.8,8.3-3.7,9-1
		c0.8,2.7,0.4,4.8,0.4,4.8s6.1-3.4,5.4-13s-1.5-19.1-0.8-23.7c0.8-4.6,4.6-18.4,3.4-24.1c-1.1-5.7-0.4-12.6-0.4-14.2
		c0-1.5-16-32.7-31.4-26.5c0,0-11.4,8-13.5,16.1c-2,8-3.4,26.2-6.3,30.2c-3.1,4.1-7.4,20.2-9.1,23.2c-1.7,3.1-4.1,6.7-6.7,7.4
		c-4.1,1-9.1-6-9.4-9.1c-0.3-3.1,0.7-12.1-1.7-20.5c-2.4-8.4,2.7-17.4,5-24.2c2.4-6.7,11.4-13.1,11.4-13.1l0.9-6L76.5,59.9z"/>
	<path d="M104.4,75.6c0,0,2.3,8.4,3.4,10.3s5.7,0,6.5,1.9s7.3,6.9,12.2,4.2c5-2.7,10.3-10.3,12.6-12.6c2.3-2.3-0.8-17.6-2.7-19.9
		c-1.9-2.3-11.5-14.2-19.1-10.3S104.8,72.1,104.4,75.6z"/>
	<path fill="#A75628" d="M74.1,37.3c0,0,4.1,5.9,5.2,9c1.1,3.1,2.2,7.4,7.6,8c5.4,0.5,9.6,0,10.3-1.9c0.6-1.9,8.7-16,9-24.4
		c0.3-8.4-1.8-12.2-2.2-14.1c-0.5-2-4.1-8.8-5.4-10.3s-6.1-4.1-11-3.5c-4.9,0.5-9.3,1.6-11.1,4.1c-1.8,2.7-3.7,5.4-4.8,7.4
		c-1.1,2.1-1.2,7.3-1.2,10s-0.2,5.4,0.2,6.2C71.1,28.5,74.1,37.3,74.1,37.3z"/>
	<path fill="#FFCE00" d="M44.8,89c0,0-7.1,5.2-4.6,24.9c1.6,12.5-2.3,13.8-3.4,15.7c-1.1,1.9-9.1,23.4-8.4,26.4
		c0,0-1.1,10.7-2.3,12.6c-1.1,1.9-4.5,10.5-5.7,13.4c-1.5,3.5-0.2,6.2-0.2,6.2s1.1-1.6,4.8-3.1c4.3-1.8,9-1,10.6,1.3
		c1.3,1.8,1.8,2.7,1.3,4.6c1.5-1.1,7.2-2.4,6.4-5.1c-0.8-2.7,0.4-6.9,0.8-8.8c0.4-1.9,6.5-10.7,8.4-12.2c1.9-1.5,6.1-5,5.7-8.4
		c-0.4-3.4,2.7-14.9,2.7-14.9l-6.1-15.3C54.7,126.1,47,87.1,44.8,89z"/>
	<path fill="#BF9B00" d="M138.8,95.5c-1.1-5.7-0.4-12.6-0.4-14.2c0-0.1-0.1-0.4-0.2-0.8c-2.6,3.1-7.3,9.2-11.6,11.5
		c-1.6,0.9-3.4,0.9-5.1,0.5c3.1,3.2,8.2,9.8,6.3,15.5c-2.7,8-1.1,17.6-5.7,16.1c-4.6-1.5-6.1-4.6-7.7-1.9s-0.4,5,2.3,5.7
		s8,4.6,10.3,5c2.3,0.4,7.3,4.2,4.2,5.7s-5.7,0.8-7.3,3.4c-1.2,2.1-2.2,4.5-2.5,5.4c4-0.2,8,0.2,8.6,2.3c0.8,2.7,0.8,6.5,0.8,6.5
		s6.1-3.4,5.4-13s-1.5-19.1-0.8-23.7C136.2,115,140,101.2,138.8,95.5z"/>
	<path stroke="#FFCE00" stroke-width="0.5" stroke-miterlimit="10" d="M78.4,15.3c-0.7,1,0.2,7.6,4.5,7.5c4.4-0.1,6.7-3.4,7-5.7
		c0.1-1.3,0.1-2.9-4.1-3.2C83.8,13.7,79.9,13.1,78.4,15.3z"/>
	<ellipse cx="73.3" cy="137.9" rx="1.8" ry="2.8"/>
	<ellipse cx="67.2" cy="138.7" rx="1.8" ry="2.8"/>
	<ellipse cx="73.3" cy="149.4" rx="1.8" ry="2.8"/>
	<ellipse cx="67.2" cy="150.2" rx="1.8" ry="2.8"/>
	<ellipse cx="73.3" cy="160.9" rx="1.8" ry="2.8"/>
	<ellipse cx="67.2" cy="161.6" rx="1.8" ry="2.8"/>
	<ellipse cx="73.3" cy="172.3" rx="1.8" ry="2.8"/>
	<ellipse cx="67.2" cy="173.1" rx="1.8" ry="2.8"/>
	<path fill="#FFFFFF" d="M83.7,41c1.8-0.7,9.3-3.4,10.3-0.8l0.6,1.1c-2.1,1.8-7.7,3.5-10,1.3L83.7,41z"/>
	<g>
		<path fill="#FFFFFF" d="M83.5,34.8c2.8-1,7.3-1.1,10.2-0.3l1.1-1.5c-0.8-2.9-8.1-1.8-10.5-1.1L83.5,34.8z"/>
	</g>
	<g>
		<g>
			<path fill="#A75628" d="M83.8,30.1c-2,3.6-3.1,11.5,0.8,14.2c0.5,0.3,1.8-0.3,1.1-0.8c-3.6-2.5-2.4-10.1-0.6-13.3
				C85.6,29.4,84.2,29.5,83.8,30.1L83.8,30.1z"/>
		</g>
	</g>
	<path stroke="#FFCE00" stroke-width="0.5" stroke-miterlimit="10" d="M103.5,15c0.6,0.9-0.3,7.2-4.2,7.3c-4,0.1-6.2-2.9-6.5-5.1
		c-0.2-1.2-0.2-2.8,3.5-3.2C98.1,13.8,102.1,13,103.5,15z"/>
	<path display="none" fill="#873300" d="M21.6,185.9c0,0,0.6,5.2,0.5,7.6c-0.2,2.4-2.6,12.5-3.4,14.7c-0.8,2.1-2.6,8-1.3,10.6
		c1.3,2.6,2.6,5,4.1,5.6c1.5,0.6,4.3,1.8,3.7-1.5c-0.6-3.2,1.1-6.4,1.3-8.8c0.2-2.4,1.1-6.3,1.8-6.9c0.6-0.6,2.1,2.1,1.9,3.7
		c-0.2,1.5-0.2,3.7,0,5.2s1.9,2.4,3,0.5c1.1-1.9,2.6-3,1.3-5.8c-1.3-2.8-2.1-9.3-2.4-10.8c-0.2-1.5,0-3.2,0.5-4.5
		c0.5-1.3,3.9-4.1,4.3-5.2c0.5-1.1,0.5-8.6,0.5-8.6s-5-1.8-5.6-1.8c-0.6,0-5.6,1.3-6.3,1.3C24.6,180.9,21.6,185.9,21.6,185.9z"/>
	<path display="none" d="M79.3,72.7l0.2-0.2c0.1,0.1,0.1,0.2,0.2,0.2c0.1,0.1,0.1,0.2,0.2,0.2l-0.2,0.2
		C79.6,73.1,79.5,72.9,79.3,72.7z M80.3,73.9l-0.4-0.4l0.2-0.2c0.1,0.1,0.1,0.2,0.2,0.2c0.1,0.1,0.1,0.2,0.2,0.2L80.3,73.9z
		 M80.9,74l0.4,0.4l-0.2,0.2c-0.1-0.1-0.2-0.1-0.2-0.2c-0.1-0.1-0.2-0.1-0.2-0.2c0.1,0,0.2-0.1,0.2-0.1C80.8,74.1,80.8,74,80.9,74z
		 M78.7,71.9c0.1,0,0.2-0.1,0.2-0.2c0.1,0.1,0.1,0.2,0.2,0.2c0.1,0.1,0.1,0.2,0.2,0.2c-0.1,0.1-0.1,0.1-0.2,0.1c0,0-0.1,0-0.2,0.1
		c0-0.1-0.1-0.2-0.2-0.2C78.8,72.1,78.7,72,78.7,71.9z M81.6,74.7c0.1,0,0.2,0,0.2,0.1c0.1,0.1,0.2,0.1,0.2,0.2
		c0,0.1-0.1,0.2-0.2,0.3c-0.2-0.1-0.2-0.2-0.4-0.3C81.5,74.9,81.5,74.8,81.6,74.7z M78.2,71.1c0.1-0.1,0.1-0.1,0.2-0.1
		c0,0,0.1,0,0.2-0.1c0.2,0.2,0.2,0.4,0.2,0.5c-0.1,0-0.2,0.1-0.3,0.2C78.3,71.3,78.3,71.1,78.2,71.1z M82.8,75.5
		c0,0.1-0.1,0.2-0.2,0.3c-0.1-0.1-0.2-0.1-0.2-0.2c-0.1,0-0.2-0.1-0.2-0.2s0.1-0.2,0.2-0.2c0.1,0,0.2,0,0.2,0.1
		C82.7,75.4,82.8,75.4,82.8,75.5z M83.8,76c-0.1,0.1-0.1,0.1-0.1,0.2c0,0,0,0.1-0.1,0.2c-0.1,0-0.2-0.1-0.2-0.2
		C83.3,76,83.3,76,83.2,76c0,0,0-0.1,0.2-0.2c0.1,0,0.2,0,0.2,0.1C83.5,75.9,83.7,75.9,83.8,76z M77.8,70.1c0.1,0,0.1,0,0.2-0.1
		c0,0,0.1-0.1,0.2-0.1c0,0.1,0.1,0.2,0.1,0.2s0.1,0.2,0.1,0.2l-0.1,0.1c-0.1,0-0.1,0.1-0.1,0.1c0-0.1-0.1-0.2-0.1-0.2
		C77.9,70.3,77.8,70.2,77.8,70.1z M84.2,76.2c0.2,0,0.2,0,0.2,0.1c0.1,0.1,0.2,0.1,0.2,0.1c0,0.1-0.1,0.2-0.1,0.2s0,0.1-0.1,0.2
		c-0.1,0-0.2-0.1-0.2-0.1c-0.1,0-0.2-0.1-0.2-0.1c0-0.1,0-0.1,0.1-0.2C84.2,76.3,84.2,76.3,84.2,76.2z M77.4,69.2
		c0.1-0.1,0.2-0.1,0.3-0.1c0.1,0.2,0.2,0.3,0.2,0.5l-0.3,0.1C77.6,69.5,77.5,69.4,77.4,69.2z M85.6,76.6c-0.1,0.1-0.1,0.2-0.1,0.3
		c-0.2,0-0.2,0-0.3-0.1c-0.1,0-0.2-0.1-0.2-0.1c0.1-0.1,0.1-0.1,0.1-0.2c0,0,0-0.1,0.1-0.2c0.1,0,0.2,0.1,0.2,0.1
		C85.5,76.6,85.5,76.6,85.6,76.6z M77.2,68.2c0.2,0,0.2,0,0.3-0.1c0,0.2,0,0.2,0.1,0.3c0,0.1,0.1,0.2,0.1,0.2l-0.3,0.1
		C77.2,68.5,77.2,68.4,77.2,68.2z M86.5,76.9l-0.1,0.3c-0.1,0-0.2,0-0.5-0.1c0-0.2,0-0.2,0.1-0.3c0.1,0,0.2,0.1,0.2,0.1
		C86.4,76.9,86.4,76.9,86.5,76.9z M77.3,67.2c0,0.1,0.1,0.2,0.1,0.2c0,0.1,0,0.2,0.1,0.2c-0.1,0-0.2,0.1-0.3,0.1
		c0-0.1-0.1-0.2-0.1-0.2c0-0.1,0-0.2-0.1-0.2c0.1-0.1,0.1-0.1,0.2-0.1C77.2,67.2,77.2,67.2,77.3,67.2z M87,77c0.2,0,0.4,0,0.5,0.1
		c0,0.2,0,0.2-0.1,0.3c-0.1,0-0.2-0.1-0.2-0.1c-0.1,0-0.2,0-0.2-0.1L87,77z M76.8,66.2c0.2,0,0.2,0,0.3-0.1c0,0.2,0,0.4,0.1,0.5
		c-0.1,0.1-0.1,0.1-0.2,0.1c0,0-0.1,0-0.2,0.1c0-0.2,0-0.2,0-0.3C76.9,66.4,76.9,66.3,76.8,66.2z M88,77.1c0.1,0,0.2,0,0.2-0.1h0.3
		c0.1,0.1,0.1,0.2,0.1,0.2c0,0.1-0.1,0.2-0.1,0.2c-0.2,0-0.2,0-0.2,0c-0.1,0-0.2,0-0.2,0L88,77.1z M76.9,65.2h0.3c0,0.2,0,0.2,0,0.2
		c0,0.1,0,0.2,0,0.2h-0.3c0-0.1-0.1-0.2-0.1-0.2C76.9,65.5,76.9,65.3,76.9,65.2z M89,77.1c0,0,0.1,0,0.2,0c0.2-0.1,0.2-0.1,0.2,0
		c0,0,0,0.1,0,0.2c0,0.1,0,0.1,0,0.2c-0.1,0-0.2,0.1-0.5,0.1L89,77.1z M77.2,64.3c0,0.2,0,0.2,0,0.2c0,0.1,0,0.2,0,0.2
		c-0.2,0-0.2,0-0.3-0.1c0-0.1,0.1-0.2,0.1-0.4C77,64.3,77,64.3,77.2,64.3z M90.4,77c0,0.1,0.1,0.2,0.1,0.3c-0.1,0-0.2,0.1-0.2,0.1
		c-0.1,0-0.2,0-0.2,0.1c0,0-0.1-0.2-0.1-0.3c0.1,0,0.2-0.1,0.2-0.1C90.3,77,90.3,77,90.4,77z M77.3,63.3c0,0.1-0.1,0.2-0.1,0.2
		s0,0.2-0.1,0.2h-0.3c0-0.2,0-0.2,0-0.2c0-0.1,0-0.2,0-0.2C77.1,63.3,77.2,63.3,77.3,63.3z M83.8,70c0.1-0.1,0.1-0.1,0.2-0.1
		c0,0,0.1,0,0.2-0.1l0.3,0.3c0,0.1-0.1,0.2-0.2,0.2s-0.1,0-0.1,0.1L83.8,70z M84.6,70.8l0.2-0.2l0.4,0.4l-0.2,0.2
		c-0.1,0-0.2-0.1-0.2-0.2C84.7,70.9,84.6,70.8,84.6,70.8z M83.3,69.2c0.1-0.1,0.2-0.2,0.2-0.2c0.1,0.1,0.1,0.2,0.2,0.2
		c0,0.1,0.1,0.2,0.2,0.2l-0.2,0.2C83.5,69.4,83.4,69.2,83.3,69.2z M85.5,71.1c0.1,0.1,0.2,0.2,0.5,0.3c-0.1,0.1-0.2,0.2-0.2,0.3
		c-0.1-0.1-0.2-0.2-0.5-0.3c0.1-0.1,0.1-0.1,0.2-0.2C85.5,71.2,85.5,71.2,85.5,71.1z M91,76.9c0.1,0,0.2-0.1,0.2-0.1
		c0.1,0,0.2,0,0.2-0.1c0,0.1,0,0.1,0,0.2c0,0.1,0,0.1,0,0.2c-0.1,0-0.2,0.1-0.2,0.1c-0.1,0-0.2,0-0.2,0.1c-0.1-0.1-0.1-0.1-0.1-0.2
		C91,77,91,77,91,76.9z M77.6,62.3c0,0.2,0,0.3-0.1,0.5c-0.2,0-0.2,0-0.3-0.1c0.1-0.2,0.2-0.3,0.2-0.5
		C77.3,62.3,77.4,62.3,77.6,62.3z M82.8,68.2c0.2,0,0.2,0,0.3-0.1c0.1,0.2,0.2,0.3,0.2,0.4c-0.1,0.1-0.1,0.1-0.2,0.1
		c0,0-0.1,0-0.2,0.1c0-0.1-0.1-0.2-0.1-0.2C82.9,68.4,82.8,68.3,82.8,68.2z M86.4,71.7c0.2,0.2,0.4,0.2,0.4,0.2c0,0.1,0,0.1-0.1,0.2
		c0,0-0.1,0.1-0.1,0.2c-0.2-0.1-0.3-0.2-0.5-0.2c0-0.1,0-0.1,0.1-0.2S86.4,71.8,86.4,71.7z M82.5,67.3c0.2,0,0.2,0,0.3-0.1
		c0,0.1,0.1,0.2,0.1,0.2c0,0.1,0,0.2,0.1,0.2l-0.3,0.1c0-0.1-0.1-0.2-0.1-0.2C82.5,67.5,82.5,67.4,82.5,67.3z M87.7,72.2
		c0,0.2,0,0.2-0.1,0.3c-0.1,0-0.2-0.1-0.2-0.1c-0.1,0-0.2-0.1-0.3-0.1c0-0.1,0-0.1,0.1-0.2c0,0,0.1-0.1,0.1-0.2
		c0.1,0.1,0.2,0.1,0.2,0.2C87.5,72.2,87.7,72.2,87.7,72.2z M92.3,76.5c0.1,0.1,0.1,0.2,0.1,0.3C92.3,76.9,92.1,77,92,77l-0.1-0.3
		C92,76.6,92.2,76.6,92.3,76.5z M78,61.4c-0.1,0.1-0.1,0.2-0.2,0.2c0,0.1-0.1,0.2-0.1,0.2l-0.3-0.1c0-0.2,0-0.2,0.1-0.2
		c0.1-0.1,0.1-0.1,0-0.2C77.6,61.3,77.7,61.3,78,61.4z M82.3,66.3c0,0,0.2-0.1,0.3-0.1c0,0.1,0.1,0.2,0.1,0.2c0,0.1,0,0.2,0.1,0.2
		c-0.1,0-0.2,0.1-0.3,0.1c0-0.1-0.1-0.2-0.1-0.2C82.4,66.5,82.3,66.4,82.3,66.3z M88.7,72.4c0.1,0.1,0.1,0.1,0.1,0.2
		c0,0-0.1,0.1-0.1,0.2c-0.1,0-0.2,0-0.2,0c-0.1,0-0.2-0.1-0.3-0.1c0-0.1,0.1-0.2,0.1-0.3C88.3,72.4,88.4,72.4,88.7,72.4z M82.5,65.3
		c0,0,0.1,0.1,0.1,0.2s-0.1,0.3-0.2,0.3h-0.1c0-0.1-0.1-0.2-0.1-0.5H82.5z M89.1,72.5c0,0,0.2,0,0.3,0c0.2,0,0.2,0,0.3,0v0.1v0.1
		v0.1c-0.1,0.1-0.2,0.1-0.3,0.1c-0.2,0-0.2,0-0.2,0c0-0.1,0-0.2,0-0.2C89.1,72.6,89.1,72.6,89.1,72.5z M92.8,76.3
		c0.2-0.1,0.3-0.2,0.5-0.2c0.1,0.1,0.1,0.1,0.1,0.2c0,0,0,0.1,0.1,0.2c-0.2,0.1-0.3,0.2-0.5,0.2c-0.1-0.1-0.1-0.1-0.1-0.2
		S92.9,76.4,92.8,76.3z M78.3,60.5c0,0.1-0.1,0.2-0.2,0.2c-0.1,0.1-0.1,0.2-0.1,0.2C78,61,78,60.9,78,60.9s-0.1-0.1-0.2-0.1
		c0.1-0.2,0.2-0.3,0.2-0.5C78.1,60.4,78.2,60.4,78.3,60.5z M82.6,64.3c0,0.2,0,0.2,0,0.2c0,0.1,0,0.2,0,0.2h-0.2h-0.1
		c-0.1-0.1-0.1-0.2,0-0.2c0.1-0.1,0.1-0.2,0.1-0.2H82.6z M90.1,72.5c0.1,0,0.2-0.1,0.5-0.1v0.1c0,0.1,0,0.1,0.1,0.2
		c-0.2,0-0.2,0-0.3,0c-0.1,0-0.2,0-0.2,0.1C90.2,72.7,90.2,72.6,90.1,72.5C90.1,72.7,90.1,72.6,90.1,72.5z M93.7,76
		c0.2-0.1,0.3-0.2,0.4-0.2c0.1,0.1,0.1,0.1,0.1,0.2c0,0,0,0.1,0.1,0.2c-0.1,0-0.2,0.1-0.2,0.1c-0.1,0.1-0.2,0.1-0.2,0.1
		C93.8,76.1,93.8,76.1,93.7,76C93.8,76,93.7,76,93.7,76z M119.8,72.6c-0.1,0-0.2,0.1-0.3,0.2c-0.1,0.1-0.2,0.2-0.3,0.2
		c-0.5-0.6-0.9-1.1-1.5-1.5c-0.5-0.5-1.1-0.8-1.6-1.2c-0.8-0.5-1.6-1-2.4-1.3c-0.8-0.4-1.6-0.5-2.4-0.6c-0.3,0-0.5,0-0.8,0.1
		c-0.2,0.1-0.5,0.2-0.8,0.2c-1,0.2-2.1,0.2-3.3,0.2c-2.2-0.2-4.4-0.4-6.4-0.8c-0.5-0.1-1.1-0.2-1.6-0.2c-0.5-0.1-1.1-0.2-1.6-0.2
		c-0.5,0-0.8-0.1-1.2,0c-0.4,0-0.8,0.1-1.2,0.1c-0.4,0-0.6,0.1-0.8,0.2c-0.2,0.5-0.4,0.8-0.8,1.2c-0.4,0.3-0.7,0.6-1.1,0.9
		c-0.8,0.4-1.5,0.5-2.3,0.5c-0.5-0.1-0.8-0.2-1.1-0.3c-0.4-0.2-0.8-0.3-1.1-0.6c-0.4-0.3-0.7-0.6-1-1.1c-0.2-0.5-0.5-0.8-0.5-1.2
		c-0.2-0.7-0.1-1.5,0.2-2.4c0.2-0.8,0.8-1.6,1.7-2.2c0.4-0.2,0.8-0.5,1.1-0.5c0.4-0.1,0.8-0.2,1.1-0.2s0.8,0.1,1.1,0.2
		c0.4,0.1,0.8,0.3,1.1,0.5c1-0.4,2.1-0.5,3.1-0.5s2-0.2,3.1-0.3c0.4-0.1,0.7-0.2,1.1-0.3c0.3-0.2,0.7-0.4,1-0.8
		c0.2-0.2,0.2-0.4,0.4-0.5c0.2-0.2,0.2-0.3,0.2-0.5c0-0.3,0-0.6-0.1-1c-0.2-0.5-0.4-1-0.7-1.5c-0.3-0.5-0.6-1-0.9-1.5
		c-0.3-0.3-0.6-0.7-0.9-1c-0.4-0.3-0.7-0.6-1-0.9c-0.3-0.3-0.6-0.5-1-0.8l0.1,0.1l-0.4,0.4L95.6,53c0.1,0,0.2-0.1,0.2-0.2
		c0.1-0.1,0.1-0.2,0.2-0.2c-0.5-0.4-1-0.8-1.5-1.2c-0.5-0.4-1-0.8-1.5-1.2c0,0,0,0.1-0.2,0.2l-0.1,0.1c-0.1,0-0.1,0-0.1,0.1
		c0-0.1-0.1-0.2-0.2-0.3c0.1-0.1,0.2-0.1,0.2-0.1c0.1,0,0.2-0.1,0.2-0.1c-0.4-0.3-0.8-0.6-1.2-0.9c-0.4-0.3-0.8-0.6-1.2-0.9
		c-0.8,0.2-1.6,0.2-2.5-0.2c-0.9-0.3-1.6-1-2.1-2c-0.4-0.8-0.5-1.6-0.5-2.4c0.1-0.9,0.5-1.8,1.2-2.4c0.4-0.4,0.8-0.7,1.2-0.9
		c0.5-0.2,0.8-0.3,1.3-0.4c0.8-0.1,1.6,0,2.4,0.5c1,0.5,1.6,1.2,2,2.2c0.4,0.8,0.4,1.6,0.2,2.5c0.4,0.2,0.7,0.5,1,0.7
		s0.7,0.5,1.1,0.7c0.1,0,0.1,0,0.1-0.1s0-0.1,0-0.1c0.1,0,0.1,0,0.1,0h0.1c0.1,0.1,0.1,0.1,0,0.2c-0.1,0.1-0.1,0.1,0,0.2l0.1,0.1
		l0.1,0.1c0,0,0.1,0,0.1,0.1c0.7,0.5,1.4,0.9,2.1,1.4c0.7,0.5,1.4,0.9,2,1.4c-0.1-0.2-0.2-0.5-0.3-0.8c-0.2-0.2-0.3-0.5-0.5-0.8
		c-0.2,0-0.2,0-0.3,0.1c-0.1,0.1-0.2,0-0.3-0.1c0-0.2,0.1-0.2,0.2-0.2c0.2,0,0.2,0,0.3-0.1c-0.7-1.2-1.4-2.4-2-3.7
		c-0.7-1.2-1.3-2.4-2-3.7c-0.7,0-1.4-0.1-2.1-0.3c-0.7-0.2-1.4-0.7-1.9-1.5c-0.4-0.6-0.6-1.3-0.7-2c-0.1-0.7,0.1-1.5,0.3-2.1
		c0.3-0.8,0.9-1.5,1.7-1.9c0.6-0.5,1.3-0.7,2.1-0.7c0.6,0,1.3,0.2,2.1,0.5c0.7,0.3,1.3,0.8,1.8,1.7l0.1-0.1c0,0,0-0.1,0.1-0.1
		c0.1-0.5,0.2-1.1,0.6-1.7c0.3-0.5,0.8-1.1,1.4-1.5c0.5-0.4,1.1-0.7,1.7-0.8c0.6-0.1,1.1-0.1,1.8,0c0.5,0.1,1.1,0.3,1.8,0.7
		s1.1,0.9,1.5,1.6c0.5,1.1,0.6,2.2,0.3,3.5c0.2-0.7,0.7-1.2,1.2-1.8c0.5-0.5,1.1-0.8,1.8-0.9c0.6-0.2,1.1-0.2,1.8-0.1
		c0.6,0.1,1.2,0.4,1.8,0.8c0.6,0.5,1.1,1.1,1.3,1.8c0.2,0.6,0.3,1.2,0.3,1.8c-0.1,0.6-0.2,1.2-0.5,1.8c-0.3,0.6-0.8,1.1-1.5,1.6
		c0.2,1.4,0.5,2.8,0.8,4.1c0.4,1.4,0.8,2.8,1.5,4.1c0.1,0.1,0.1,0.1,0.2,0c0-0.1,0.1-0.1,0.1,0.1c0,0.1,0,0.1,0.1,0.2
		c0,0.1-0.1,0.2-0.1,0.1c0,0,0,0-0.1,0c0,0,0,0.1,0.1,0.2c0.1,0.2,0.2,0.2,0.2,0.3c0.2,0.6,0.5,1.3,0.8,1.9c0.3,0.7,0.5,1.3,0.8,1.9
		c0.2,0.5,0.5,1.1,0.6,1.7c0.2,0.5,0.4,1.1,0.6,1.6c0.1,0.2,0.2,0.4,0.2,0.5c0.1,0.2,0.2,0.3,0.3,0.5c0.2,0.2,0.3,0.3,0.5,0.5
		c0.2,0.2,0.4,0.2,0.6,0.4c1.2,0.8,2.5,1.7,3.7,2.4c1.2,0.8,2.5,1.5,3.7,2.3c-0.1,0.2-0.2,0.3-0.4,0.6c-1.3-0.8-2.6-1.7-3.9-2.4
		c-1.3-0.8-2.7-1.6-3.9-2.4c-0.2-0.2-0.4-0.2-0.5-0.4c-0.2-0.2-0.3-0.3-0.5-0.5s-0.2-0.3-0.2-0.5c-0.1-0.2-0.1-0.3-0.2-0.5
		c-0.2-0.3-0.3-0.7-0.4-1c-0.1-0.3-0.2-0.6-0.4-1c-0.2-0.7-0.5-1.4-0.8-2.1c-0.2-0.7-0.5-1.3-0.8-2c-0.3-0.7-0.6-1.3-0.9-2
		c-0.3-0.6-0.5-1.3-0.8-2c-0.5-1.3-0.8-2.7-1.1-4c-0.3-1.3-0.5-2.6-0.8-4c-0.2-0.5-0.2-1-0.3-1.5c-0.1-0.5-0.2-1-0.4-1.5
		c0-0.2-0.1-0.3-0.2-0.5s-0.2-0.4-0.4-0.5c-0.1,0-0.2,0-0.4,0.1c-0.2,0.1-0.4,0.2-0.6,0.3c-0.2,0.2-0.3,0.3-0.3,0.5
		c-0.1,0.2-0.1,0.5,0,0.8c0.1,0.3,0.1,0.5,0.1,0.8c0.1,1.5,0.2,3,0.2,4.5c0.1,1.5,0.2,3,0.2,4.4c-0.2-0.1-0.4-0.2-0.5-0.4
		c-0.2-0.2-0.4-0.2-0.5-0.4c-0.2-0.1-0.3-0.2-0.4-0.2c-0.1-0.1-0.2-0.2-0.2-0.3c-0.1-0.2-0.1-0.3-0.2-0.4c-0.7-1.6-1.3-3.2-2-4.7
		c-0.6-1.5-1.3-3.1-1.9-4.7c-0.1-0.2-0.2-0.2-0.2-0.4c-0.1-0.2-0.1-0.2-0.2-0.3c-0.1-0.2-0.2-0.3-0.4-0.5c-0.2-0.2-0.4-0.4-0.5-0.5
		c-0.2-0.2-0.4-0.3-0.5-0.4c-0.2-0.1-0.3-0.1-0.5-0.1c-0.2,0.1-0.2,0.2-0.4,0.4c-0.2,0.2-0.2,0.4-0.3,0.5c-0.1,0.2-0.1,0.5,0.1,0.8
		c0.1,0.3,0.2,0.5,0.2,0.8c0.5,1.8,1.1,3.5,1.7,5.2c0.6,1.8,1.1,3.4,1.6,5.2c-0.3,0.1-0.6,0.2-0.9,0.2c-0.3,0.1-0.6,0.1-0.9,0
		c-0.2-0.1-0.4-0.2-0.5-0.3c-0.1-0.2-0.2-0.3-0.2-0.5c-0.2-0.4-0.5-0.7-0.7-1.1c-0.2-0.3-0.5-0.7-0.7-1.1c-0.6-0.9-1.2-1.8-1.8-2.8
		c-0.6-0.9-1.1-1.8-1.7-2.7c-0.2-0.2-0.2-0.5-0.4-0.7c-0.2-0.2-0.2-0.5-0.4-0.7c-0.2-0.2-0.3-0.5-0.5-0.8c-0.2-0.2-0.5-0.5-0.7-0.5
		c-0.2-0.1-0.4-0.1-0.5,0c-0.2,0.1-0.3,0.2-0.5,0.3c-0.5,0.4-0.6,0.8-0.5,1.1c0.1,0.4,0.2,0.8,0.5,1.2c0.8,1.5,1.5,2.8,2.2,4.2
		c0.8,1.4,1.5,2.8,2.3,4.1c0.2,0.3,0.3,0.6,0.5,0.8c0.2,0.3,0.3,0.5,0.5,0.8c0.2,0.2,0.2,0.5,0.3,0.8c0.1,0.3,0.1,0.6-0.1,0.8
		c-0.2,0.3-0.5,0.4-0.7,0.2c-0.2-0.2-0.5-0.3-0.8-0.5c-0.2-0.2-0.4-0.3-0.7-0.5c-1.1-0.8-2.2-1.5-3.3-2.3c-1.1-0.8-2.2-1.5-3.4-2.2
		c-0.5-0.3-0.9-0.5-1.4-0.8c-0.5-0.3-0.9-0.5-1.4-0.5c-0.3,0-0.6,0.2-0.9,0.6c-0.2,0.3-0.3,0.5-0.4,0.7c0,0.3,0.2,0.7,0.6,1.1
		c0.4,0.4,0.8,0.7,1.1,0.9c1.3,1.1,2.6,2.1,3.8,3.1c1.2,1,2.5,2,3.7,3.1c0.3,0.3,0.7,0.5,1,0.8c0.3,0.3,0.6,0.5,0.9,0.8
		c0.2,0.2,0.2,0.4,0.3,0.5c0.1,0.2,0.2,0.3,0.3,0.5c0.7,1.1,1.1,2,1.4,2.8c0.2,0.7,0.1,1.3-0.3,1.9c-0.5,0.8-1.1,1.2-1.8,1.5
		c-0.6,0.2-1.3,0.5-2,0.5c-0.7,0.1-1.3,0.1-1.9,0.2c-0.3,0-0.6,0-0.9,0.1c-0.3,0.1-0.7,0.1-1,0.2c-0.3,0.1-0.6,0.2-0.9,0.2
		c-0.3,0.1-0.7,0.2-0.9,0.4c-0.5,0.2-0.7,0.5-0.8,0.8c-0.2,0.3-0.3,0.6-0.5,0.9c-0.2,0.3-0.2,0.6-0.3,1c0,0.2-0.1,0.3-0.2,0.5
		c-0.1,0.2,0,0.3,0.1,0.5c0.1,0.1,0.2,0.2,0.3,0.2c0.1,0,0.2,0.1,0.2,0.2c0.6-0.1,1.2-0.2,1.8-0.4c0.6-0.2,1.2-0.2,1.9-0.3
		c1.1-0.2,2.3-0.2,3.7,0.1c0.6,0.2,1.2,0.2,1.8,0.4c0.6,0.1,1.2,0.2,1.8,0.3c0.6,0.1,1.2,0.2,1.8,0.2c0.6,0.1,1.2,0.2,1.8,0.2
		c0.7,0.1,1.5,0.2,2.3,0.2c0.8,0,1.6,0,2.3-0.2c0.2,0,0.3-0.1,0.5-0.1c0.2-0.1,0.3-0.1,0.5-0.1c0.5,0,1.1,0.1,1.8,0.2
		c0.6,0.2,1.2,0.4,1.8,0.7c0.6,0.3,1.2,0.6,1.8,1.1c0.7,0.4,1.3,0.8,1.9,1.3c0.6,0.5,1.1,1.1,1.8,1.8L119.8,72.6z M78.5,59.5
		c0.1,0,0.1,0,0.2,0.1c0,0,0.1,0.1,0.2,0.1c0,0.1-0.1,0.2-0.2,0.2s-0.1,0.2-0.2,0.2L78.4,60c-0.1,0-0.1-0.1-0.1-0.1
		C78.4,59.7,78.5,59.5,78.5,59.5z M82.9,63.3c0,0.1-0.1,0.2-0.1,0.2s-0.1,0.2-0.1,0.3c-0.2,0-0.2,0-0.3-0.1c0-0.1,0.1-0.2,0.1-0.2
		s0-0.2,0.1-0.2c0.1,0,0.2,0,0.2,0C82.8,63.3,82.8,63.3,82.9,63.3z M91.6,72.2c0.1,0.1,0.1,0.2,0.1,0.3c-0.1,0-0.2,0.1-0.2,0.1
		c-0.1,0-0.2,0.1-0.3,0.1c0-0.2,0-0.2-0.1-0.3c0.1,0,0.2-0.1,0.2-0.1C91.4,72.3,91.5,72.3,91.6,72.2z M89.1,62.4
		c-0.4,0.1-0.7,0.2-1.1,0.3c-0.4,0.2-0.7,0.5-1,0.8c-0.4,0.4-0.6,0.8-0.8,1.3c-0.2,0.5-0.2,0.9-0.2,1.3c0.1,0.5,0.2,0.8,0.4,1.3
		c0.2,0.5,0.5,0.8,1.1,1.2c0.4,0.3,0.8,0.5,1.3,0.6c0.5,0.1,0.8,0.1,1.3,0c0.5-0.1,0.8-0.2,1.3-0.5c0.5-0.2,0.8-0.6,1.1-1.2
		c-0.2,0-0.3,0.1-0.5,0.1c-0.2,0.1-0.4,0.1-0.6,0.1c-0.5,0.2-0.9,0.2-1.2,0.2c-0.2,0-0.2-0.1-0.4-0.2c-0.2-0.1-0.2-0.2-0.3-0.2
		c-0.3-0.3-0.4-0.6-0.4-0.9c0-0.3,0-0.7,0.2-1c0.1-0.4,0.2-0.7,0.4-1.1c0.2-0.3,0.4-0.7,0.6-1.1s0.5-0.6,0.9-0.8
		C90.5,62.5,89.8,62.3,89.1,62.4z M94.6,75.5c0.1-0.1,0.2-0.2,0.5-0.2l0.1,0.1c0,0.1,0,0.1,0.1,0.2c-0.1,0.1-0.2,0.1-0.2,0.2
		c-0.1,0.1-0.2,0.1-0.2,0.2C94.7,75.7,94.6,75.6,94.6,75.5z M79,58.6c0.1,0,0.2,0.1,0.3,0.2c-0.1,0.1-0.1,0.2-0.2,0.2
		c0,0.1-0.1,0.2-0.2,0.2c-0.1,0-0.1,0-0.2-0.1c0,0-0.1-0.1-0.2-0.1c0-0.1,0.1-0.2,0.2-0.2C78.9,58.7,79,58.7,79,58.6z M83.2,62.5
		c-0.1,0.1-0.1,0.2-0.2,0.2c0,0.1-0.1,0.2-0.2,0.2l-0.1-0.1c0,0-0.1,0-0.2-0.1c0.1-0.2,0.2-0.3,0.2-0.5c0.1,0.1,0.1,0.1,0.2,0.1
		C83.1,62.4,83.2,62.4,83.2,62.5z M92.3,72c0.1,0,0.2-0.1,0.2-0.1c0,0,0.1,0.2,0.2,0.3c-0.2,0.1-0.3,0.2-0.5,0.2l-0.1-0.3
		C92.1,72.1,92.2,72,92.3,72z M95.4,74.9c0.1-0.1,0.2-0.1,0.2-0.2c0.1,0,0.2-0.1,0.2-0.2l0.2,0.2c-0.1,0.1-0.2,0.1-0.2,0.2
		c-0.1,0.1-0.2,0.1-0.2,0.2C95.5,75.1,95.5,75,95.4,74.9z M79.7,57.8l0.2,0.2c-0.2,0.2-0.2,0.3-0.3,0.4c-0.1,0-0.2-0.1-0.3-0.2
		c0.1-0.1,0.1-0.2,0.2-0.2C79.6,57.9,79.6,57.8,79.7,57.8z M83.4,61.4c0.1,0,0.2,0.1,0.3,0.2c0,0.1-0.1,0.2-0.2,0.2
		c-0.1,0.1-0.1,0.1-0.2,0.2L83.1,62C83.3,61.7,83.4,61.5,83.4,61.4z M92.9,71.7c0.1-0.1,0.2-0.2,0.5-0.2c0.1,0.1,0.1,0.1,0.1,0.2
		c0,0,0,0.1,0.1,0.1c-0.2,0.2-0.3,0.2-0.5,0.2L93,71.8C93,71.8,93,71.8,92.9,71.7z M96.2,74.4l0.3-0.3l0.2,0.2
		c-0.1,0-0.2,0.1-0.2,0.2c0,0.1-0.1,0.1-0.2,0.2L96.2,74.4z M80.4,57.1l0.2,0.2l-0.4,0.4l-0.1-0.1c0,0-0.1-0.1-0.1-0.2
		c0-0.1,0.1-0.2,0.2-0.2C80.3,57.2,80.4,57.1,80.4,57.1z M84.1,60.6l0.2,0.2c-0.2,0.2-0.2,0.3-0.3,0.4L83.8,61
		C83.8,61,83.8,60.8,84.1,60.6z M94.2,70.8c0.1,0.1,0.1,0.1,0.1,0.2c0,0,0,0.1,0.1,0.2c-0.1,0.1-0.2,0.1-0.2,0.2
		c-0.1,0.1-0.2,0.1-0.2,0.2c0-0.1-0.1-0.2-0.2-0.3c0.1-0.1,0.2-0.1,0.2-0.2C94,71,94.1,70.9,94.2,70.8z M97.2,73.3l0.2,0.2
		c0,0.1-0.2,0.2-0.3,0.4l-0.2-0.2L97.2,73.3z M80.8,56.8l0.4-0.4l0.2,0.2c-0.1,0.1-0.2,0.1-0.2,0.2c-0.1,0.1-0.2,0.1-0.2,0.2
		L80.8,56.8C80.9,56.8,80.9,56.8,80.8,56.8z M84.5,60.3c0.1-0.1,0.1-0.2,0.2-0.2c0.1-0.1,0.1-0.2,0.2-0.2L85,60l-0.4,0.4L84.5,60.3z
		 M94.9,70.2l0.2,0.2l-0.4,0.4l-0.2-0.2C94.7,70.5,94.8,70.3,94.9,70.2z M97.8,72.5c0.1,0.1,0.1,0.1,0.2,0.1c0,0,0.1,0,0.2,0.1
		c-0.1,0.1-0.2,0.2-0.2,0.2c-0.1,0.1-0.1,0.2-0.2,0.2l-0.2-0.2c0.1-0.1,0.1-0.2,0.2-0.2C97.8,72.7,97.8,72.6,97.8,72.5z M81.5,56.1
		c0.1-0.1,0.2-0.1,0.2-0.2c0.1-0.1,0.2-0.1,0.2-0.2c0.1,0.1,0.1,0.1,0.1,0.2c0,0,0,0.1,0.1,0.2c-0.1,0-0.2,0.2-0.4,0.2L81.5,56.1z
		 M85.1,59.5c0.1,0,0.2-0.2,0.4-0.3l0.2,0.2c-0.1,0.1-0.2,0.1-0.2,0.2c-0.1,0.1-0.2,0.1-0.2,0.2C85.2,59.7,85.1,59.7,85.1,59.5z
		 M95.5,69.5c0.1,0,0.2,0.1,0.2,0.2c-0.1,0.2-0.2,0.2-0.3,0.4l-0.2-0.2c0.1-0.1,0.1-0.2,0.2-0.2C95.4,69.6,95.4,69.5,95.5,69.5z
		 M98.5,71.8c0,0,0.1,0,0.2,0.2c-0.1,0.1-0.2,0.2-0.2,0.4c-0.1,0-0.2-0.1-0.3-0.2c0.1-0.1,0.1-0.2,0.2-0.2
		C98.4,71.9,98.4,71.8,98.5,71.8z M82.4,55.5c0.1-0.1,0.2-0.1,0.2-0.2c0.1,0,0.2-0.1,0.2-0.2c0.1,0.1,0.2,0.2,0.2,0.3
		c-0.1,0.1-0.2,0.2-0.4,0.2C82.5,55.7,82.4,55.6,82.4,55.5z M79.2,52.2l0.2-0.2l0.4,0.4l-0.2,0.2L79.2,52.2z M80.1,52.6l0.3,0.3
		c-0.1,0.1-0.1,0.1-0.1,0.2c0,0,0,0.1-0.1,0.1c-0.2-0.1-0.2-0.2-0.4-0.3L80.1,52.6z M86,59c0.1,0,0.2-0.1,0.2-0.1
		c0.1-0.1,0.2-0.1,0.2-0.1c0,0.1,0.1,0.2,0.2,0.2c-0.2,0.2-0.4,0.2-0.5,0.2c-0.1-0.1-0.1-0.1-0.1-0.2C86.1,59.1,86.1,59.1,86,59z
		 M78.6,51.3L78.6,51.3c0.1-0.1,0.2-0.1,0.2-0.2c0.1,0.1,0.1,0.2,0.2,0.2c0,0.1,0.1,0.2,0.2,0.2l-0.2,0.2
		C78.7,51.6,78.6,51.4,78.6,51.3z M96,68.6c0.1,0,0.2,0.1,0.2,0.2c-0.1,0.2-0.2,0.3-0.2,0.4c-0.1,0-0.2-0.1-0.2-0.2
		c0-0.1,0.1-0.2,0.2-0.2C95.9,68.8,95.9,68.7,96,68.6z M81.2,53.5c0,0.1-0.1,0.2-0.2,0.3l-0.3-0.3c0-0.1,0.1-0.2,0.2-0.2
		c0.1,0,0.2,0.1,0.2,0.2C81,53.5,81.1,53.5,81.2,53.5z M78,50.6c0.1-0.1,0.2-0.2,0.3-0.2c0,0.1,0.1,0.2,0.1,0.2
		c0.1,0.1,0.1,0.1,0.1,0.2c-0.1,0.1-0.2,0.2-0.2,0.2c-0.1-0.1-0.1-0.2-0.2-0.2C78.1,50.6,78,50.6,78,50.6z M81.6,53.9
		c0.1,0.1,0.2,0.2,0.2,0.2c0.1,0.1,0.2,0.1,0.2,0.2c-0.1,0.1-0.2,0.2-0.2,0.2c-0.1,0-0.2-0.1-0.2-0.2c-0.1-0.1-0.2-0.1-0.2-0.2
		C81.5,54,81.5,54,81.6,53.9C81.5,53.9,81.5,53.9,81.6,53.9z M77.4,49.6c0.1,0,0.2-0.1,0.2-0.1s0.1,0,0.2-0.1
		c0.1,0.2,0.2,0.3,0.2,0.4c-0.1,0.1-0.1,0.1-0.2,0.1c0,0-0.1,0-0.2,0.1c0-0.1-0.1-0.2-0.2-0.2C77.5,49.8,77.5,49.7,77.4,49.6z
		 M82.5,54.4c0.1,0.1,0.2,0.2,0.4,0.2c0,0.1,0,0.1-0.1,0.2c0,0-0.1,0.1-0.1,0.2c-0.1-0.1-0.2-0.2-0.4-0.2
		C82.4,54.5,82.4,54.5,82.5,54.4z M98.9,70.8c0.1,0,0.2,0.1,0.2,0.1s0.1,0.1,0.2,0.1c-0.1,0.1-0.2,0.2-0.3,0.5
		c-0.1-0.1-0.1-0.1-0.2-0.1c0,0-0.1,0-0.2-0.1C98.8,71.2,98.8,71.1,98.9,70.8z M77,48.6c0.2,0,0.2,0,0.3-0.1
		c0.1,0.2,0.2,0.3,0.2,0.5c-0.1,0.1-0.1,0.1-0.2,0.1c0,0-0.1,0-0.1,0.1c0-0.1-0.1-0.2-0.1-0.2C77.1,48.9,77,48.8,77,48.6z
		 M83.4,55.3l-0.2-0.2c0-0.1,0.1-0.2,0.2-0.2c0.2,0,0.3,0.1,0.5,0.2c-0.1,0-0.2,0.1-0.2,0.1C83.5,55.2,83.5,55.2,83.4,55.3z
		 M86.9,58.6c0.1,0,0.2-0.1,0.3-0.1c0.1,0,0.2-0.1,0.3-0.1c0,0.2,0,0.2,0.1,0.3c-0.1,0-0.2,0.1-0.3,0.1c-0.1,0-0.2,0.1-0.2,0.2
		C87,58.7,86.9,58.6,86.9,58.6z M96.6,67.9c0,0.1-0.1,0.2-0.1,0.2s-0.1,0.2-0.1,0.2c-0.1,0-0.1,0-0.2-0.1c0,0-0.1-0.1-0.2-0.1
		c0-0.1,0.1-0.2,0.1-0.2c0-0.1,0.1-0.2,0.1-0.2c0.1,0,0.1,0,0.2,0.1C96.5,67.8,96.6,67.9,96.6,67.9z M76.7,47.7l0.3-0.1
		c0.1,0.2,0.2,0.3,0.2,0.5C77,48.2,77,48.2,77,48.2c0,0-0.1,0-0.1,0.1c0-0.1-0.1-0.2-0.1-0.2C76.7,48,76.7,47.9,76.7,47.7z
		 M76.7,46.7c0,0.1,0.1,0.2,0.1,0.2c0,0.1,0,0.2,0.1,0.2c-0.1,0-0.2,0.1-0.3,0.1c-0.1-0.2-0.1-0.3-0.1-0.5L76.7,46.7z M99.6,70.1
		c-0.1,0.2-0.2,0.3-0.2,0.5c-0.1-0.1-0.1-0.1-0.2-0.1c0,0-0.1,0-0.1-0.1l0.2-0.4C99.4,70,99.5,70,99.6,70.1z M87.9,58.2
		c0.2,0,0.2,0,0.2,0c0.1,0,0.2,0,0.2,0v0.1c0,0.1,0,0.1,0.1,0.2c-0.2,0-0.2,0-0.3,0.1c-0.1,0-0.2,0.1-0.3,0.1
		C87.9,58.4,87.9,58.3,87.9,58.2z M76.3,45.7h0.3c0,0.1,0.1,0.2,0.1,0.2c0,0.1,0,0.2,0.1,0.2c-0.1,0-0.1,0-0.2,0c-0.1,0-0.1,0-0.2,0
		c0-0.1-0.1-0.2-0.1-0.2C76.3,46,76.3,45.9,76.3,45.7z M99.7,69.1c0.1,0,0.2,0.1,0.2,0.1s0.1,0,0.2,0.1c-0.1,0.2-0.2,0.3-0.2,0.5
		c-0.2,0-0.2,0-0.3-0.1c0-0.1,0.1-0.2,0.1-0.2C99.6,69.2,99.6,69.2,99.7,69.1z M89.4,58.4c-0.1,0-0.2,0-0.2,0c-0.1,0-0.2,0-0.2,0
		v-0.1c0-0.1,0-0.1,0-0.2c0,0,0.2,0,0.3,0c0.2,0,0.2,0,0.3,0c0,0,0,0.1,0,0.2C89.4,58.2,89.4,58.3,89.4,58.4z M76.2,44.7h0.3
		c0,0.1,0.1,0.2,0.1,0.5h-0.3C76.2,45.2,76.2,45.1,76.2,44.7z M100.2,68.2c0,0.2,0,0.3-0.1,0.5h-0.3c0-0.2,0-0.2,0.1-0.3
		c0-0.1,0.1-0.2,0.1-0.2C100.1,68.2,100.2,68.2,100.2,68.2z M76.5,43.8c0,0.2,0,0.3,0,0.5c-0.2,0.1-0.2,0.1-0.4,0c0-0.2,0-0.3,0-0.5
		C76.3,43.8,76.3,43.8,76.5,43.8z M89.9,58.1h0.5c0,0.1,0,0.1,0,0.2c0,0.1,0,0.1,0,0.2c-0.1,0-0.2-0.1-0.5-0.1V58.1z M90.9,58.1
		c0.2,0,0.2,0,0.3,0.1c0.1,0,0.2,0.1,0.3,0.1c0,0.1,0,0.1-0.1,0.2c0,0-0.1,0.1-0.1,0.2c-0.1,0-0.2,0-0.2-0.1c-0.1,0-0.2-0.1-0.3-0.1
		L90.9,58.1z M76.6,42.8c0,0.2,0,0.5-0.1,0.5h-0.3c0-0.2,0-0.4,0.1-0.5s0.1-0.1,0.2-0.1C76.4,42.8,76.5,42.8,76.6,42.8z M92.3,58.6
		C92.3,58.7,92.3,58.7,92.3,58.6v0.2c-0.2,0-0.2,0-0.3-0.1c-0.1,0-0.2-0.1-0.2-0.1c0-0.2,0-0.2,0.1-0.3c0.1,0,0.2,0.1,0.2,0.1
		C92.3,58.5,92.3,58.5,92.3,58.6z M76.7,41.8c0,0.2-0.1,0.4-0.2,0.5c0,0-0.1-0.1-0.1,0c-0.1,0-0.1,0-0.1,0c0-0.2,0-0.2,0-0.2
		c0-0.1,0-0.2,0-0.2c0.1,0,0.1,0,0.2,0C76.6,41.8,76.7,41.8,76.7,41.8z M93.3,59c-0.1,0.1-0.1,0.1-0.1,0.2c0,0,0,0.1-0.1,0.1
		c-0.1,0-0.2-0.1-0.2-0.1c-0.1,0-0.2-0.1-0.2-0.1l0.1-0.3c0.2,0,0.2,0,0.3,0.1C93.1,58.9,93.2,59,93.3,59z M93.8,59.3
		c0.1,0.1,0.2,0.1,0.2,0.2c0.1,0,0.2,0.1,0.2,0.2c0,0.1-0.1,0.2-0.2,0.2c-0.1,0-0.2-0.1-0.2-0.2c-0.1-0.1-0.2-0.1-0.2-0.2L93.8,59.3
		z M95.4,61.2c0.1-0.1,0.2-0.2,0.2-0.2c0.1,0.1,0.1,0.2,0.2,0.2c0,0.1,0.1,0.2,0.2,0.2c0,0.1-0.1,0.2-0.1,0.2s-0.1,0-0.2,0.1
		C95.5,61.4,95.4,61.3,95.4,61.2z M83.3,48.9c0.2-0.2,0.2-0.2,0.3-0.2c0.1,0.1,0.1,0.2,0.2,0.2c0,0.1,0.1,0.2,0.2,0.2l-0.2,0.2
		L83.3,48.9z M84.3,49.4l0.3,0.3l-0.1,0.1c0,0,0,0.1-0.1,0.2c-0.1-0.1-0.2-0.1-0.2-0.2c-0.1-0.1-0.2-0.1-0.2-0.2L84.3,49.4z
		 M94.7,60.4l0.2-0.2c0.1,0,0.2,0.1,0.2,0.2c0.1,0.1,0.1,0.2,0.2,0.2l-0.2,0.2c-0.1,0-0.2-0.1-0.2-0.2
		C94.9,60.6,94.8,60.5,94.7,60.4z M94.5,59.9c0.1,0.1,0.2,0.2,0.2,0.2c0.1,0.1,0.2,0.2,0.2,0.2l-0.2,0.2c-0.1-0.1-0.2-0.1-0.2-0.2
		c-0.1,0-0.1-0.1-0.2-0.2l0.1-0.1C94.5,60,94.5,59.9,94.5,59.9z M82.7,48c0.1-0.1,0.1-0.1,0.2-0.1c0,0,0.1,0,0.2-0.1
		c0.1,0.1,0.1,0.2,0.2,0.2c0.1,0.1,0.1,0.2,0.2,0.2c-0.2,0.2-0.2,0.2-0.3,0.2c-0.1-0.1-0.1-0.2-0.2-0.2C82.8,48.2,82.8,48.1,82.7,48
		z M85.5,50.3c0,0.1-0.1,0.2-0.2,0.3c-0.1,0-0.2-0.1-0.2-0.2c-0.1-0.1-0.1-0.1-0.2-0.2c0-0.1,0.1-0.2,0.2-0.2c0.2,0,0.2,0,0.2,0.1
		C85.3,50.2,85.4,50.2,85.5,50.3z M82.2,47.1c0.1-0.1,0.2-0.1,0.3-0.1c0.1,0.2,0.2,0.3,0.2,0.4c-0.1,0.1-0.1,0.1-0.2,0.1
		c0,0-0.1,0-0.2,0.1c0-0.1-0.1-0.2-0.1-0.2C82.3,47.3,82.3,47.3,82.2,47.1z M77,40.9c0,0.1-0.1,0.2-0.1,0.2c0,0.1-0.1,0.2-0.1,0.2
		c-0.1-0.1-0.2-0.1-0.3-0.1c0-0.2,0.1-0.3,0.2-0.5c0.1,0.1,0.1,0.1,0.2,0.1C76.9,40.8,76.9,40.8,77,40.9z M85.8,50.6
		c0.1,0,0.2,0,0.5,0.2c0,0-0.1,0.2-0.2,0.3c-0.1-0.1-0.2-0.1-0.2-0.2c-0.1,0-0.2-0.1-0.2-0.2L85.8,50.6
		C85.8,50.6,85.8,50.6,85.8,50.6z M81.9,46.2c0.1,0,0.1,0,0.2,0c0.1,0,0.1,0,0.2,0c0.1,0.2,0.2,0.3,0.2,0.5L82,46.7
		c0-0.1-0.1-0.2-0.1-0.2C81.9,46.4,81.9,46.3,81.9,46.2z M87.2,50.9c0,0.1,0,0.1,0,0.2s0,0.1,0,0.2c-0.2,0-0.3-0.1-0.5-0.2l0.1-0.1
		c0-0.1,0.1-0.1,0.1-0.1c0.1,0,0.2,0,0.2,0.1C87.1,50.9,87.1,50.9,87.2,50.9z M81.7,45.2H82c0,0.1,0.1,0.2,0.1,0.2
		c0,0.1,0,0.2,0.1,0.2c-0.1,0-0.1,0-0.2,0.1c0,0-0.1,0.1-0.2,0.1C81.7,45.6,81.7,45.4,81.7,45.2z M77,39.9c0.1,0,0.1,0,0.2,0.1
		c0,0,0.1,0.1,0.2,0.1c0,0.1-0.1,0.2-0.1,0.2c0,0.1-0.1,0.2-0.1,0.2l-0.3-0.1c0-0.1,0.1-0.2,0.1-0.2C77,40,77,39.9,77,39.9z
		 M87.7,51.1c0.1,0,0.2,0,0.2,0c0.1,0,0.2,0.1,0.3,0.1c0,0.1,0,0.1-0.1,0.2c0,0-0.1,0.1-0.1,0.2c-0.1,0-0.2,0-0.2,0
		c-0.1,0-0.2-0.1-0.3-0.1c0-0.1,0-0.1,0.1-0.2C87.7,51.2,87.7,51.2,87.7,51.1z M81.6,44.2h0.3c0,0.1,0,0.2,0,0.2c0,0.1,0,0.2,0,0.2
		c-0.1,0-0.2,0-0.2,0.1c-0.1,0-0.1,0-0.2,0c0,0,0-0.1,0-0.2C81.6,44.4,81.6,44.3,81.6,44.2z M88.7,51.2h0.5c0,0,0,0.1,0,0.2
		c0,0.1,0,0.1,0,0.2c0,0-0.1,0-0.2,0c-0.2,0-0.2,0-0.3,0.1c0-0.1,0-0.2,0-0.2C88.7,51.3,88.7,51.2,88.7,51.2z M77.6,39
		c0,0.2,0,0.2-0.1,0.2c-0.1,0.1-0.1,0.1-0.2,0.2c-0.1,0-0.1,0-0.2-0.1c0,0-0.1-0.1-0.2-0.1c0-0.1,0.1-0.2,0.1-0.2
		c0-0.1,0.1-0.2,0.1-0.2c0.1,0,0.2,0,0.2,0C77.6,39,77.6,39,77.6,39z M81.9,43.3c0,0.1-0.1,0.2-0.1,0.5c-0.1-0.1-0.1-0.1-0.2-0.1
		c0,0-0.1,0-0.2,0c0-0.1,0.1-0.2,0.1-0.5C81.7,43.2,81.8,43.2,81.9,43.3z M90.1,51.1c0,0.1,0.1,0.2,0.1,0.3c-0.1,0-0.2,0.1-0.5,0.1
		v-0.3c0.1,0,0.2-0.1,0.2-0.1C90,51.1,90,51.1,90.1,51.1z M93.2,54.5c0.2-0.1,0.3-0.2,0.4-0.2c0.1,0.1,0.1,0.1,0.1,0.2
		c0,0,0,0.1,0.1,0.2c-0.1,0-0.2,0.1-0.2,0.1c-0.1,0.1-0.2,0.1-0.2,0.1C93.3,54.7,93.3,54.7,93.2,54.5C93.2,54.7,93.2,54.6,93.2,54.5
		z M94.1,55L94.1,55c-0.1,0.1-0.1,0.2-0.2,0.2c-0.1,0-0.2-0.1-0.2-0.2C93.6,55,93.6,55,93.5,55c0-0.1,0-0.1,0.1-0.2
		c0,0,0.1-0.1,0.1-0.2C93.8,54.8,93.9,54.9,94.1,55z M99.1,60.4L99.1,60.4c0.2-0.1,0.2-0.1,0.2-0.2c0.2,0.2,0.2,0.4,0.2,0.5
		c-0.1,0-0.2,0.1-0.2,0.1s-0.1,0-0.2,0.1C99.2,60.7,99.1,60.6,99.1,60.4z M78,38.1c0.1,0,0.2,0.1,0.2,0.2C78,38.5,78,38.6,78,38.6
		c-0.1,0-0.1,0-0.2-0.1c0,0-0.1-0.1-0.2-0.1C77.8,38.2,77.9,38.1,78,38.1z M82.2,42.3c0,0.1-0.1,0.2-0.1,0.2c0,0.1,0,0.2-0.1,0.2
		c-0.1,0-0.2,0-0.3-0.1c0.1-0.2,0.1-0.3,0.1-0.5c0.1,0,0.2,0,0.2,0C82,42.2,82.1,42.3,82.2,42.3z M94.6,55.2c0.1,0,0.2,0.1,0.2,0.2
		c0.1,0.1,0.2,0.1,0.2,0.2c0,0.1-0.1,0.2-0.2,0.3c-0.1-0.1-0.2-0.1-0.2-0.2c-0.1-0.1-0.2-0.1-0.2-0.2C94.5,55.4,94.5,55.3,94.6,55.2
		z M98.6,59.6L98.6,59.6c0.2-0.1,0.2-0.1,0.2-0.2c0.1,0.1,0.2,0.2,0.2,0.5c-0.1,0-0.2,0.1-0.2,0.2C98.8,60,98.7,59.8,98.6,59.6z
		 M95.4,55.8c0.1,0,0.2,0.1,0.2,0.2c0.1,0.1,0.1,0.1,0.2,0.2c0,0.1-0.1,0.2-0.2,0.3c-0.1-0.1-0.2-0.1-0.2-0.2
		c-0.1,0-0.2-0.1-0.2-0.2C95.2,56,95.3,55.9,95.4,55.8z M98.1,58.7l0.2-0.2c0.1,0.1,0.1,0.2,0.2,0.2c0.1,0.1,0.1,0.2,0.2,0.2
		c-0.1,0.1-0.2,0.2-0.3,0.2c0-0.1-0.1-0.2-0.1-0.2C98.1,58.9,98.1,58.8,98.1,58.7z M90.6,51c0.2,0,0.3-0.1,0.5-0.2l0.1,0.3
		c-0.2,0.1-0.3,0.2-0.5,0.2C90.7,51.2,90.7,51,90.6,51z M96.6,56.7l-0.2,0.2c-0.1-0.1-0.2-0.1-0.2-0.2c-0.1,0-0.1-0.1-0.2-0.2
		c0.1-0.1,0.1-0.2,0.2-0.2c0.1,0,0.2,0.1,0.2,0.2C96.4,56.6,96.5,56.7,96.6,56.7z M96.9,57.1l0.4,0.4l-0.2,0.2
		c0-0.1-0.1-0.2-0.2-0.2c-0.1-0.1-0.2-0.1-0.2-0.2L96.9,57.1z M97.5,58l0.2-0.2c0.1,0.1,0.1,0.2,0.2,0.2c0.1,0.1,0.1,0.2,0.2,0.2
		l-0.1,0.1c-0.1,0-0.1,0-0.1,0.1L97.5,58z M94,54.1c0.1,0,0.2-0.1,0.2-0.1c0.1-0.1,0.1-0.1,0.2-0.1c0.1,0.1,0.2,0.2,0.2,0.2
		c-0.1,0.1-0.2,0.1-0.2,0.2c-0.1,0-0.2,0.1-0.2,0.2C94.1,54.2,94.1,54.2,94,54.1z M82.2,41.3c0.1,0,0.2,0,0.2,0s0.1,0.1,0.2,0.1
		c0,0.1-0.1,0.2-0.2,0.2c-0.1,0.1-0.1,0.2-0.2,0.2l-0.1-0.1c0,0-0.1,0-0.2-0.1c0-0.1,0-0.2,0.1-0.2C82.1,41.5,82.1,41.4,82.2,41.3z
		 M78.4,37.2c0.1,0,0.2,0.1,0.3,0.2c-0.1,0.1-0.1,0.2-0.2,0.2c-0.1,0.1-0.1,0.2-0.2,0.2c-0.1-0.1-0.2-0.2-0.2-0.2
		c0-0.1,0.1-0.2,0.2-0.2C78.3,37.3,78.4,37.3,78.4,37.2z M90.9,40.8c-0.6-0.2-1.3-0.3-2.1-0.2s-1.5,0.5-2,1.1
		c-0.5,0.5-0.8,1.2-0.8,1.8c-0.1,0.7,0,1.3,0.3,1.9c0.3,0.7,0.8,1.2,1.4,1.5c0.6,0.3,1.1,0.5,1.7,0.5h0.1c0.1,0,0.1,0,0.1-0.1
		c-0.4-0.4-0.8-0.7-1.3-1.1c-0.5-0.3-0.8-0.8-0.8-1.2c0-0.3,0-0.6,0.2-0.9c0.2-0.4,0.3-0.7,0.5-0.9c0.2-0.3,0.5-0.5,0.6-0.5
		c0.2-0.1,0.5-0.1,0.7,0c0.5,0.1,1.1,0.3,1.6,0.7c0.5,0.4,1.1,0.8,1.7,1.1c0.2-0.6,0-1.3-0.3-2C92.3,41.8,91.6,41.2,90.9,40.8z
		 M92,50.5L92,50.5c0.1,0.2,0.1,0.2,0.2,0.2c-0.1,0.1-0.2,0.2-0.5,0.2c0-0.1-0.1-0.2-0.1-0.2s0-0.1-0.1-0.2c0.1,0,0.2-0.1,0.2-0.1
		C91.8,50.6,91.9,50.6,92,50.5z M94.9,53.5c0.1-0.1,0.2-0.1,0.2-0.2c0.1,0,0.2-0.1,0.2-0.2l0.2,0.2c-0.2,0.2-0.3,0.2-0.4,0.3
		L94.9,53.5C94.9,53.6,94.9,53.6,94.9,53.5z M82.6,40.3L82.6,40.3c0.2,0.1,0.2,0.2,0.2,0.2c-0.1,0.2-0.2,0.3-0.2,0.5
		c-0.1,0-0.2-0.1-0.2-0.1s-0.1,0-0.2-0.1C82.5,40.5,82.6,40.4,82.6,40.3z M79.1,36.4l0.2,0.2c-0.1,0.1-0.1,0.2-0.2,0.2
		c0,0.1-0.1,0.2-0.2,0.2c-0.1-0.1-0.1-0.1-0.2-0.1c0,0-0.1,0-0.2-0.1L79.1,36.4z M83.2,39.5c0.1,0,0.2,0.1,0.3,0.2l-0.4,0.4L83,39.9
		C82.9,39.8,83.1,39.7,83.2,39.5z M79.4,36l0.4-0.4l0.2,0.2c-0.1,0-0.2,0.1-0.2,0.2c-0.1,0.1-0.1,0.2-0.2,0.2L79.4,36z M83.9,38.8
		l0.2,0.2c-0.1,0-0.2,0.1-0.2,0.2s-0.1,0.2-0.2,0.2c-0.1-0.1-0.1-0.1-0.2-0.1c0,0-0.1,0-0.2-0.1L83.9,38.8z M80.2,35.3
		c0.1-0.1,0.2-0.1,0.2-0.2c0.1,0,0.2-0.1,0.2-0.2l0.2,0.2c-0.1,0-0.2,0.2-0.4,0.2L80.2,35.3z M84.2,38.4c0.2-0.1,0.2-0.2,0.4-0.3
		c0.2,0.2,0.2,0.2,0.2,0.3c-0.1,0.1-0.2,0.1-0.2,0.2c-0.1,0-0.2,0.1-0.2,0.2L84.2,38.4z M80.9,34.7c0.1-0.1,0.2-0.1,0.2-0.2
		c0.1-0.1,0.2-0.1,0.2-0.2l0.2,0.2c0,0.1-0.1,0.2-0.2,0.2c-0.1,0.1-0.2,0.1-0.2,0.2L80.9,34.7z M85.1,37.8c0.1-0.1,0.2-0.2,0.5-0.2
		c0,0.1,0.1,0.2,0.2,0.2c-0.1,0.1-0.2,0.1-0.2,0.2c-0.1,0.1-0.2,0.1-0.2,0.2c-0.1-0.1-0.1-0.1-0.1-0.2
		C85.2,37.9,85.2,37.9,85.1,37.8z M81.8,34.2c0.1-0.1,0.2-0.2,0.5-0.2c0,0.1,0,0.1,0.1,0.2c0,0,0.1,0.1,0.1,0.2
		c-0.1,0-0.2,0.1-0.2,0.1c-0.1,0.1-0.1,0.1-0.2,0.1C81.9,34.3,81.9,34.3,81.8,34.2C81.9,34.2,81.9,34.2,81.8,34.2z M86.1,37.4
		c0.1,0,0.2-0.1,0.2-0.1c0.1-0.1,0.2-0.1,0.2-0.1c0,0.2,0,0.2,0.1,0.3c-0.1,0-0.2,0.1-0.2,0.1c-0.1,0.1-0.2,0.1-0.2,0.1
		C86.1,37.6,86.1,37.4,86.1,37.4z M82.7,33.7c0.2-0.2,0.4-0.2,0.4-0.2c0.1,0.1,0.1,0.1,0.1,0.2c0,0,0,0.1,0.1,0.2
		c-0.1,0-0.2,0.1-0.2,0.1c-0.1,0-0.2,0.1-0.2,0.1l-0.1-0.1C82.8,33.8,82.8,33.7,82.7,33.7z M87,36.9c0.2,0,0.2,0,0.3-0.1
		c0.1,0,0.2-0.1,0.3-0.1v0.3c-0.1,0-0.2,0.1-0.2,0.1c-0.1,0-0.2,0.1-0.3,0.1C87.1,37.2,87,37.1,87,36.9z M83.6,33.2
		c0.1,0,0.2-0.1,0.2-0.1c0.1,0,0.2-0.1,0.2-0.1c0,0,0.1,0.2,0.2,0.3c-0.2,0.1-0.3,0.2-0.5,0.2c0-0.1-0.1-0.2-0.1-0.2
		C83.6,33.3,83.6,33.3,83.6,33.2z M96.2,45.3c0,0.2,0,0.2-0.1,0.3c0,0.1-0.1,0.2-0.1,0.3c-0.1,0-0.2-0.1-0.3-0.1
		c0-0.2,0-0.2,0.1-0.3c0-0.1,0-0.2,0-0.2c0.1,0,0.2,0,0.2,0C96.1,45.3,96.2,45.3,96.2,45.3z M87.6,35.9c0,0.2,0,0.2,0,0.2
		c0,0.1,0,0.2,0,0.2h-0.3c0-0.1,0-0.2,0-0.2c0-0.1,0-0.2,0-0.2c0.1-0.1,0.1-0.1,0.2-0.1C87.4,35.9,87.5,35.9,87.6,35.9z M84.8,32.5
		c0,0.2-0.1,0.4-0.2,0.5c-0.1-0.1-0.2-0.1-0.3-0.1c0.1-0.2,0.2-0.3,0.2-0.5c0.1,0,0.1,0,0.2,0.1C84.7,32.5,84.7,32.5,84.8,32.5z
		 M96.4,44.3c0,0.2,0,0.2,0,0.2c0,0.1,0,0.2,0,0.2h-0.3c0-0.2,0-0.3,0-0.5c0.1-0.1,0.1-0.1,0.2-0.1C96.2,44.3,96.2,44.3,96.4,44.3z
		 M87.7,35c0,0.2,0,0.3-0.1,0.5c-0.2,0-0.2,0-0.3-0.1c0.1-0.2,0.1-0.3,0.1-0.5c0.1,0,0.2,0,0.2,0C87.6,35,87.7,35,87.7,35z
		 M96.6,43.5c0.1,0.1,0.1,0.2,0.1,0.3c-0.1,0-0.2,0.1-0.2,0.1c-0.1,0-0.2,0-0.2,0.1c0-0.2,0-0.2-0.1-0.3c0.1,0,0.2-0.1,0.2-0.1
		C96.5,43.6,96.5,43.6,96.6,43.5z M85.2,31.7c-0.1,0.2-0.2,0.3-0.2,0.5C85,32,85,32,84.9,32c0,0-0.1,0-0.2-0.1
		c0-0.1,0.1-0.2,0.2-0.2c0.1-0.1,0.1-0.1,0.2-0.2C85,31.5,85.1,31.6,85.2,31.7z M88.1,34c-0.1,0.2-0.2,0.3-0.2,0.5
		c-0.2,0-0.2,0-0.2-0.1c0-0.2,0.1-0.3,0.2-0.5C87.9,34,87.9,34,88.1,34C88,34,88,34,88.1,34z M96.4,33.1c-0.6-0.3-1.3-0.5-2.1-0.4
		c-0.8,0.1-1.5,0.5-2,1.1c-0.5,0.6-0.8,1.2-0.8,1.8c-0.1,0.6,0,1.2,0.3,1.8c0.2,0.7,0.8,1.2,1.4,1.6c0.7,0.4,1.3,0.5,1.8,0.5
		c-0.3-0.6-0.6-1.3-0.9-1.9c-0.2-0.6-0.2-1.2,0.5-1.8c0.4-0.5,0.8-0.8,1.1-0.9c0.5-0.2,1,0,1.5,0.5s0.8,0.9,1.1,1.5
		c0.2-0.6,0.1-1.3-0.2-2.1C97.8,34.1,97.2,33.5,96.4,33.1z M85.5,30.6c0.1,0,0.2,0.1,0.3,0.2c-0.1,0.1-0.2,0.2-0.2,0.4
		c-0.1,0-0.2-0.1-0.3-0.2C85.3,31,85.4,30.8,85.5,30.6z M88.5,33.2c-0.2,0.2-0.2,0.4-0.2,0.4L88,33.5c0-0.1,0.1-0.2,0.2-0.2
		c0.1-0.1,0.1-0.1,0.2-0.2C88.3,33,88.4,33.1,88.5,33.2z M86.1,29.8l0.2,0.2c-0.1,0.1-0.1,0.2-0.2,0.2c0,0.1-0.1,0.2-0.2,0.2
		c-0.1-0.1-0.1-0.1-0.2-0.1c0,0-0.1,0-0.1-0.1s0.1-0.2,0.2-0.2C86,29.9,86,29.8,86.1,29.8z M88.8,32.3c0,0,0.1,0,0.2,0.2
		c0,0.1-0.2,0.2-0.3,0.4c-0.1,0-0.2-0.1-0.2-0.2C88.6,32.5,88.7,32.4,88.8,32.3z M86.8,29l0.2,0.2c-0.2,0.2-0.2,0.3-0.3,0.4
		l-0.2-0.2L86.8,29z M89.5,31.5l0.2,0.2L89.4,32l-0.1-0.1c0,0-0.1,0-0.2-0.1L89.5,31.5z M87,28.7l0.4-0.4l0.2,0.2
		c-0.1,0-0.2,0.1-0.2,0.2c-0.1,0.1-0.1,0.2-0.2,0.2L87,28.7z M98.8,37.9c0.8,1.3,1.6,2.6,2.5,3.9c0,0,0.1-0.1,0-0.1
		c0-0.1,0-0.1,0.1-0.1c0.1,0.1,0.2,0.1,0.2,0.1c0.1,0,0.2,0,0.2,0.1c0,0.1-0.1,0.2-0.1,0.3c-0.2-0.1-0.3-0.1-0.4-0.1
		c0.5,0.8,0.9,1.5,1.4,2.1c0.5,0.7,0.9,1.4,1.4,2.1c0.2,0,0.4,0,0.7,0c-0.2-0.6-0.4-1.2-0.6-1.8s-0.4-1.2-0.5-1.9
		c-0.2,0-0.2,0-0.2,0c-0.1,0-0.1,0-0.2,0c0.1-0.1,0.1-0.1,0-0.2c-0.1-0.1,0-0.1,0-0.2c0,0,0.1,0,0.2,0c0.1,0.1,0.1,0.1,0.1,0
		c-0.2-0.5-0.3-0.9-0.5-1.4c-0.2-0.5-0.3-0.9-0.5-1.4c-0.5,0-1.2-0.2-1.9-0.7c-0.7-0.4-1.2-1-1.6-1.7C99.1,37.1,99,37.5,98.8,37.9z
		 M89.9,31.1c0.2-0.2,0.3-0.3,0.4-0.3l0.2,0.2L90,31.4L89.9,31.1z M87.7,28c0-0.1,0.1-0.2,0.2-0.2c0.1-0.1,0.2-0.1,0.2-0.2l0.2,0.2
		c-0.1,0.1-0.2,0.1-0.2,0.2c-0.1,0.1-0.2,0.1-0.2,0.2L87.7,28z M90.7,30.5c0.1,0,0.2-0.1,0.2-0.2c0.1-0.1,0.2-0.1,0.2-0.2
		c0,0.1,0.1,0.2,0.2,0.3c-0.2,0.2-0.4,0.2-0.5,0.2C90.7,30.7,90.7,30.7,90.7,30.5C90.8,30.6,90.7,30.6,90.7,30.5z M102.7,42
		c0,0.1,0,0.1,0,0.2c0,0.1,0,0.1,0,0.2c-0.1,0-0.2-0.1-0.2-0.1c-0.1,0-0.2-0.1-0.2-0.1c0-0.1,0-0.1,0-0.1V42
		C102.4,41.9,102.7,42,102.7,42z M88.5,27.3c0.1,0,0.2-0.2,0.4-0.3c0.1,0.1,0.1,0.1,0.1,0.2c0,0,0,0.1,0.1,0.2
		c-0.1,0.1-0.2,0.1-0.2,0.2c-0.1,0.1-0.2,0.1-0.2,0.2c-0.1-0.1-0.1-0.1-0.1-0.2C88.6,27.4,88.6,27.3,88.5,27.3z M91.6,30.1
		c0.1-0.1,0.2-0.1,0.2-0.2c0.1,0,0.2-0.1,0.3-0.1c0,0.2,0,0.2,0.1,0.3c-0.1,0-0.2,0.1-0.2,0.1c-0.1,0-0.2,0.1-0.2,0.1
		C91.6,30.2,91.6,30.2,91.6,30.1C91.6,30.1,91.6,30.1,91.6,30.1z M89.4,26.8c0.1,0,0.2-0.1,0.2-0.2c0.1-0.1,0.2-0.1,0.2-0.2
		c0.1,0.1,0.1,0.2,0.1,0.2s0,0.1,0.1,0.1c-0.1,0.1-0.2,0.1-0.2,0.2c-0.1,0.1-0.2,0.1-0.2,0.2C89.4,26.9,89.4,26.9,89.4,26.8
		C89.4,26.9,89.4,26.8,89.4,26.8z M92.6,29.7c0.1,0,0.2-0.1,0.2-0.1c0.1,0,0.2,0,0.2-0.1c0,0.1,0.1,0.2,0.1,0.3L92.7,30
		C92.6,30,92.6,29.8,92.6,29.7z M107.1,34.3c-0.1-1-0.5-1.8-1.3-2.7c-0.8-0.6-1.7-0.9-2.6-0.8c-0.5,0-0.9,0.2-1.4,0.3
		c-0.5,0.2-0.9,0.5-1.3,0.9c-0.5,0.6-0.8,1.2-1,1.9c-0.2,0.5-0.2,1.2-0.1,1.9c0.2,0.7,0.5,1.3,1.1,1.8c0.5,0.5,1.1,0.8,1.8,0.9
		c-0.1-0.3-0.2-0.6-0.3-0.9c-0.1-0.3-0.2-0.6-0.3-1c-0.1-0.3-0.2-0.6-0.2-1c-0.1-0.4-0.2-0.7-0.1-1c0.1-0.2,0.2-0.4,0.4-0.6
		c0.2-0.2,0.4-0.5,0.5-0.6c0.4-0.2,0.7-0.3,1.1-0.2c0.4,0.2,0.7,0.4,1.1,0.7c0.2,0.2,0.4,0.3,0.6,0.5c0.2,0.2,0.4,0.5,0.5,0.6
		c0.1,0.1,0.1,0.2,0.1,0.2c0,0.1,0,0.2,0.1,0.2c0.1,0.2,0.2,0.5,0.3,0.7c0.1,0.2,0.2,0.5,0.3,0.7C106.9,36,107.1,35.2,107.1,34.3z
		 M90.2,26.3c0.1,0,0.2-0.1,0.2-0.1c0.1-0.1,0.2-0.1,0.2-0.1c0.1,0.1,0.1,0.2,0.1,0.3c-0.1,0-0.2,0.1-0.2,0.1
		c-0.1,0.1-0.1,0.1-0.2,0.1c-0.1-0.1-0.1-0.1-0.1-0.2C90.3,26.4,90.3,26.4,90.2,26.3z M94,29.4c0,0.1,0.1,0.2,0.1,0.3
		c-0.1,0-0.2,0.1-0.2,0.1c-0.1,0-0.2,0-0.2,0.1c0-0.1-0.1-0.2-0.1-0.3c0.1,0,0.2-0.1,0.2-0.1C93.9,29.4,93.9,29.4,94,29.4z
		 M107.6,38.8c-0.3-0.8-0.4-1.6-0.2-2.4c0.1-0.1,0.1-0.2,0.2-0.2c0-0.1,0-0.1,0-0.1c-0.1,0.2-0.2,0.5-0.4,0.7
		c-0.2,0.2-0.3,0.5-0.6,0.8c0.5,1.1,0.9,2.1,1.3,3.2c0.5,1.1,0.9,2.1,1.3,3.2c0.1,0.2,0.1,0.3,0.2,0.4c0.1,0.1,0.2,0.2,0.3,0.2
		l-0.1,0.3c0,0.2,0,0.2,0.1,0.3c0,0.1,0.1,0.2,0.1,0.2c0.1,0.1,0.1,0.2,0.2,0.2c0,0.1,0.1,0.2,0.2,0.2v-0.5c0-0.7-0.1-1.4-0.1-2.1
		c-0.1-0.7-0.1-1.3-0.2-2c-0.5-0.2-0.9-0.5-1.3-1C108.1,39.7,107.8,39.2,107.6,38.8z M94.6,29.4h0.5v0.2v0.1c-0.1,0.1-0.2,0.1-0.2,0
		c-0.1-0.1-0.2-0.1-0.2,0C94.6,29.7,94.6,29.5,94.6,29.4z M91.2,25.9c0.2-0.1,0.3-0.2,0.5-0.2c0.1,0.1,0.1,0.1,0.1,0.2
		c0,0,0,0.1,0.1,0.1c-0.2,0.1-0.3,0.2-0.5,0.2l-0.1-0.1C91.3,25.9,91.2,25.9,91.2,25.9z M95.5,29.4c0.2,0,0.2,0,0.2,0
		c0.1,0,0.2,0,0.2,0c0,0.1-0.1,0.2-0.1,0.3c-0.2,0-0.3,0-0.5-0.1c-0.1-0.1-0.1-0.1-0.1-0.2C95.5,29.6,95.5,29.5,95.5,29.4z
		 M92.1,25.6c0.2-0.1,0.3-0.2,0.5-0.2c0,0,0.1,0.2,0.2,0.3c-0.2,0-0.3,0-0.5,0.1C92.2,25.8,92.2,25.8,92.1,25.6
		C92.2,25.6,92.2,25.6,92.1,25.6z M96.5,29.7c0.1,0,0.2,0.1,0.2,0.1c0.1,0,0.2,0.1,0.2,0.1l-0.1,0.3c-0.2,0-0.3,0-0.5-0.2
		c0-0.1,0-0.1,0.1-0.2C96.5,29.8,96.5,29.8,96.5,29.7z M98,30.2L98,30.2c-0.1,0.2-0.2,0.2-0.2,0.2c-0.1-0.1-0.2-0.1-0.2-0.2
		c-0.1,0-0.2-0.1-0.2-0.2l0.1-0.3c0.1,0,0.2,0.1,0.2,0.2C97.8,30.1,97.9,30.2,98,30.2z M93.1,25.3c0.1,0,0.2-0.1,0.2-0.1
		c0.1,0,0.2,0,0.2-0.1c0,0.1,0.1,0.2,0.1,0.3c-0.2,0-0.3,0-0.5,0.1C93.2,25.5,93.1,25.5,93.1,25.3z M98.5,29.9c0.1,0,0.1,0,0.2,0.1
		c0,0.1,0.1,0.1,0.1,0.2c-0.2,0.2-0.2,0.3-0.3,0.4c-0.1-0.1-0.1-0.1-0.2-0.1c0,0-0.1,0-0.2-0.1C98.4,30.1,98.5,30.1,98.5,29.9z
		 M116.7,49c0.1,0,0.2-0.1,0.2-0.1c0.1,0,0.2-0.1,0.2-0.1c0,0,0.1,0.2,0.2,0.3c-0.2,0.1-0.3,0.2-0.5,0.2
		C116.8,49.3,116.8,49.2,116.7,49z M94.6,25.1v0.3c-0.1,0-0.2,0.1-0.2,0.1c-0.1,0-0.2,0-0.2,0.1c0-0.1-0.1-0.2-0.1-0.3
		C94.2,25.2,94.4,25.1,94.6,25.1z M98.9,29.5c0.2-0.1,0.2-0.2,0.4-0.3l0.2,0.2c-0.2,0.1-0.2,0.2-0.4,0.3L98.9,29.5z M117.7,48.6
		c0.1,0,0.2-0.1,0.2-0.1c0.1-0.1,0.2-0.1,0.2-0.1c0,0.2,0,0.2,0.1,0.3c-0.1,0.1-0.2,0.2-0.4,0.2c-0.1-0.1-0.1-0.1-0.1-0.2
		C117.7,48.7,117.7,48.7,117.7,48.6z M115.1,37.4c0-0.9-0.2-1.7-0.8-2.3c-0.4-0.5-0.8-0.8-1.2-0.9c-0.5-0.2-0.8-0.3-1.3-0.3
		c-0.5,0-0.9,0.1-1.4,0.2c-0.5,0.2-0.8,0.5-1.3,0.9c-0.4,0.4-0.6,0.8-0.8,1.3c-0.2,0.5-0.2,0.9-0.2,1.4c0,0.5,0.2,0.9,0.4,1.4
		c0.2,0.5,0.6,0.8,1.1,1.2c0.1-0.2,0.1-0.2,0-0.4c0-0.5-0.1-0.9-0.1-1.3c-0.1-0.4-0.1-0.8-0.1-1.3c-0.1-0.6,0-1.1,0.4-1.5
		c0.2-0.2,0.4-0.4,0.7-0.5c0.3-0.1,0.5-0.2,0.8-0.2c0.5-0.1,0.8,0.1,1,0.5c0.2,0.4,0.4,0.8,0.5,1.1c0.2,0.5,0.3,1.1,0.4,1.6
		c0.1,0.5,0.2,1.1,0.3,1.6l0.1,0.3c0.5-0.4,0.9-0.8,1.1-1.3C114.9,38.3,115.1,37.9,115.1,37.4z M95.2,25.1c0.2,0,0.4,0,0.5-0.1
		c0,0.1,0,0.2,0,0.2c0,0.1,0,0.2,0,0.2s-0.1,0-0.2,0c-0.2,0-0.2,0-0.2,0c0-0.1,0-0.2,0-0.2C95.2,25.2,95.2,25.2,95.2,25.1z
		 M96.6,25.4c-0.2,0-0.4,0-0.5-0.1V25c0,0,0.1,0.1,0.2,0c0.2,0,0.2,0,0.2,0L96.6,25.4z M99.7,28.9c0.1,0,0.2-0.1,0.2-0.2
		c0.1-0.1,0.2-0.1,0.2-0.2c0,0.1,0.1,0.2,0.2,0.2c-0.1,0.1-0.2,0.1-0.2,0.2c-0.1,0.1-0.2,0.1-0.2,0.2C99.8,29.1,99.8,29.1,99.7,28.9
		C99.8,29.1,99.8,29,99.7,28.9z M114.9,44.4c0.1,0,0.2-0.1,0.2-0.1c0.1-0.1,0.2-0.1,0.2-0.1l0.1,0.3c-0.1,0.1-0.2,0.1-0.2,0.1
		c-0.1,0-0.2,0.1-0.2,0.1c-0.1-0.1-0.1-0.1-0.1-0.2C115,44.5,114.9,44.5,114.9,44.4z M118.6,48.2c0.2-0.1,0.3-0.2,0.4-0.2
		C119,48,119,48,119,48.1c0,0,0,0.1,0.1,0.2c-0.2,0.1-0.3,0.2-0.4,0.2C118.7,48.3,118.6,48.3,118.6,48.2z M97.2,25.2
		c0.2,0,0.2,0,0.3,0.1c0.1,0,0.2,0.1,0.3,0.1c0,0.1,0,0.1-0.1,0.2c0,0-0.1,0.1-0.1,0.2h-0.1c-0.1,0-0.1,0-0.2-0.1h-0.1
		c-0.1,0-0.1,0-0.2-0.1v-0.1C97.2,25.3,97.2,25.2,97.2,25.2z M100.6,28.5c0.1,0,0.2-0.1,0.2-0.1c0.1-0.1,0.2-0.1,0.2-0.1l0.1,0.3
		c-0.2,0.1-0.3,0.2-0.4,0.2c-0.1-0.1-0.1-0.1-0.1-0.2C100.7,28.5,100.6,28.5,100.6,28.5z M115.7,44c0.1-0.1,0.2-0.1,0.2-0.2
		c0.1-0.1,0.2-0.1,0.2-0.2c0,0.1,0.1,0.2,0.2,0.3c-0.1,0.1-0.2,0.1-0.2,0.2c-0.1,0.1-0.2,0.1-0.2,0.2c-0.1-0.1-0.1-0.1-0.1-0.2
		C115.9,44.1,115.8,44.1,115.7,44z M119.4,47.7c0.1-0.1,0.2-0.1,0.2-0.2c0.1,0,0.2-0.1,0.2-0.2l0.2,0.2c-0.1,0.1-0.2,0.2-0.5,0.2
		L119.4,47.7C119.5,47.8,119.5,47.7,119.4,47.7z M98.1,25.4c0.1-0.1,0.2-0.1,0.2-0.2c0.1,0,0.2-0.1,0.2-0.2c0.1,0.1,0.2,0.2,0.2,0.3
		c-0.1,0-0.2,0.1-0.2,0.2c-0.1,0.1-0.2,0.1-0.3,0.1C98,25.5,98,25.5,98.1,25.4C98.1,25.5,98.1,25.5,98.1,25.4z M101.5,28.1
		c0.2-0.1,0.3-0.2,0.5-0.2c0,0,0.1,0.2,0.2,0.3c-0.2,0-0.3,0.1-0.5,0.2C101.6,28.2,101.6,28.1,101.5,28.1z M116.6,43.4l0.4-0.4
		l0.2,0.2c-0.1,0.1-0.2,0.2-0.2,0.2c-0.1,0.1-0.2,0.2-0.2,0.2C116.7,43.6,116.7,43.5,116.6,43.4z M120.2,47.1
		c0.1-0.1,0.2-0.1,0.2-0.2c0.1-0.1,0.2-0.1,0.2-0.2c0.1,0.1,0.1,0.1,0.1,0.2c0,0,0,0.1,0.1,0.2c-0.1,0-0.2,0.2-0.4,0.3
		C120.3,47.3,120.3,47.2,120.2,47.1z M98.9,24.9c0.1,0,0.2-0.1,0.2-0.2c0.1-0.1,0.2-0.1,0.2-0.2c0,0.1,0.1,0.2,0.1,0.2
		s0,0.1,0.1,0.2c-0.1,0-0.2,0.1-0.2,0.1c-0.1,0-0.2,0.1-0.2,0.1L98.9,24.9C98.9,24.9,98.9,24.9,98.9,24.9z M102.5,27.8
		c0.1,0,0.2-0.1,0.2-0.1c0.1,0,0.2,0,0.2-0.1c0.1,0.1,0.1,0.1,0.1,0.2c0,0.1,0,0.1,0,0.1c-0.1,0-0.2,0.1-0.2,0.1
		c-0.1,0-0.2,0-0.2,0.1C102.5,28,102.5,27.9,102.5,27.8z M117.7,42.5l0.2,0.2c-0.1,0.1-0.1,0.2-0.2,0.2c0,0.1-0.1,0.2-0.2,0.2
		c-0.1,0-0.2-0.1-0.3-0.2L117.7,42.5z M120.9,46.5l0.4-0.4l0.2,0.2l-0.4,0.4L120.9,46.5z M99.8,24.5c0.1-0.1,0.2-0.1,0.2-0.2
		c0.1,0,0.2-0.1,0.2-0.2c0.1,0.2,0.1,0.3,0.2,0.3c-0.1,0-0.2,0.1-0.2,0.1c-0.1,0.1-0.2,0.1-0.2,0.1C99.9,24.6,99.8,24.5,99.8,24.5z
		 M104,27.9c-0.2,0-0.2,0-0.3,0c-0.1,0-0.2,0-0.2,0.1c0-0.2,0-0.3-0.1-0.3c0.1,0,0.2,0,0.3,0c0.2,0,0.2,0,0.2,0L104,27.9z
		 M118.2,41.6c0.1,0,0.2,0.1,0.3,0.2c-0.1,0.1-0.1,0.2-0.2,0.2c-0.1,0.1-0.1,0.2-0.2,0.2c-0.1-0.1-0.2-0.2-0.3-0.2
		C118,41.9,118.1,41.8,118.2,41.6z M121.9,45.4c0.1,0,0.2,0.1,0.3,0.2c-0.2,0.2-0.2,0.3-0.3,0.4l-0.2-0.2
		C121.8,45.7,121.9,45.5,121.9,45.4z M100.7,24c0.2,0,0.3,0,0.5-0.2c0,0.1,0,0.2,0,0.2s0,0.1,0.1,0.1c-0.2,0.1-0.3,0.2-0.5,0.2
		C100.8,24.3,100.8,24.2,100.7,24z M104.6,27.7c0.1,0,0.2,0.1,0.5,0.1c0,0.1-0.1,0.2-0.1,0.3c-0.2,0-0.2,0-0.2,0c-0.1,0-0.2,0-0.2,0
		c0-0.1,0-0.1,0-0.2C104.6,27.8,104.6,27.8,104.6,27.7z M105.5,27.8c0.2,0,0.2,0,0.3,0.1c0.1,0,0.2,0.1,0.2,0.1c0,0.2,0,0.2-0.1,0.3
		c-0.1,0-0.2-0.1-0.2-0.1c-0.1,0-0.2-0.1-0.3-0.1C105.5,28,105.5,27.9,105.5,27.8z M118.7,40.8c0.2,0,0.2,0.1,0.3,0.2
		c-0.1,0.1-0.1,0.2-0.2,0.2c0,0.1-0.1,0.2-0.1,0.2c-0.1,0-0.1,0-0.2-0.1c0,0-0.1-0.1-0.2-0.1C118.5,41.1,118.6,40.9,118.7,40.8z
		 M122.6,44.7c0.1,0,0.2,0.1,0.3,0.2c-0.1,0.1-0.1,0.2-0.2,0.2c0,0.1-0.1,0.2-0.2,0.2c-0.1,0-0.2-0.1-0.3-0.2
		C122.4,44.9,122.5,44.7,122.6,44.7z M101.7,23.8c0.2-0.1,0.3-0.2,0.5-0.2c0,0.1,0.1,0.2,0.1,0.2s0,0.1,0.1,0.2
		c-0.2,0-0.3,0-0.5,0.1C101.7,23.9,101.7,23.9,101.7,23.8z M106.5,28.1c0.1,0,0.2,0.1,0.5,0.2c0,0.1,0,0.1-0.1,0.2
		c0,0-0.1,0.1-0.1,0.2c-0.1-0.1-0.2-0.2-0.4-0.2c0-0.1,0-0.1,0-0.2C106.5,28.2,106.5,28.1,106.5,28.1z M107.5,28.5
		c0.1,0.1,0.2,0.2,0.4,0.2c-0.1,0.1-0.1,0.1-0.1,0.2c0,0,0,0.1-0.1,0.2c-0.1,0-0.2-0.1-0.2-0.1c-0.1-0.1-0.1-0.1-0.2-0.2
		C107.3,28.8,107.4,28.7,107.5,28.5z M108.3,29.1c0.1,0.1,0.2,0.1,0.2,0.2c0.1,0.1,0.2,0.1,0.2,0.2l-0.2,0.2
		c-0.2-0.2-0.3-0.2-0.4-0.3C108.2,29.3,108.2,29.2,108.3,29.1z M109.5,30.7c0.1-0.1,0.1-0.1,0.2-0.1c0,0,0.1,0,0.2-0.1
		c0.1,0.1,0.1,0.2,0.2,0.2c0,0.1,0.1,0.2,0.2,0.1l0.1,0.3c-0.1,0-0.1,0-0.2,0c-0.1,0-0.1,0-0.2,0c-0.1-0.1-0.2-0.2-0.2-0.2
		C109.6,30.8,109.5,30.7,109.5,30.7z M119.3,39.9c0,0.1-0.1,0.2-0.2,0.2c-0.1,0.1-0.1,0.2-0.1,0.2l-0.3-0.1c0.1-0.2,0.2-0.3,0.2-0.5
		C119.1,39.9,119.2,39.9,119.3,39.9z M102.7,23.6c0.1,0,0.2-0.1,0.2-0.1c0.1,0,0.2,0,0.2-0.1c0,0.1,0.1,0.2,0.1,0.3
		c-0.1,0-0.2,0.1-0.2,0.1c-0.1,0-0.2,0-0.2,0.1C102.7,23.7,102.7,23.6,102.7,23.6z M108.9,30l0.2-0.2c0.1,0,0.2,0.1,0.2,0.2
		c0.1,0.1,0.1,0.2,0.2,0.2c-0.1,0.1-0.2,0.2-0.2,0.2c-0.1,0-0.2-0.1-0.2-0.2C109,30.1,108.9,30.1,108.9,30z M123.1,43.8
		c0.1,0,0.1,0,0.2,0.1c0,0,0.1,0.1,0.2,0.1c-0.2,0.2-0.2,0.4-0.3,0.5c-0.1-0.1-0.1-0.1-0.2-0.1c0,0-0.1,0-0.2-0.1
		c0.1-0.1,0.1-0.2,0.2-0.2C122.9,44,123,43.9,123.1,43.8z M110.6,30.7c0.1,0,0.2-0.1,0.2-0.1c0.1,0,0.2,0,0.2-0.1
		c0,0.2,0,0.2,0.1,0.3c-0.2,0-0.2,0-0.2,0c-0.1,0-0.2,0-0.2,0C110.6,30.9,110.6,30.8,110.6,30.7z M104.2,23.3c0,0.1,0.1,0.2,0.1,0.3
		c-0.2,0-0.4,0-0.5,0.1c0-0.2,0-0.2-0.1-0.3C103.9,23.4,104,23.3,104.2,23.3z M119.5,38.9c0,0.2,0,0.2,0,0.2c0,0.1,0,0.2,0,0.2
		c-0.1,0-0.2,0-0.2,0s-0.1-0.1-0.2-0.1c0-0.1,0-0.2,0-0.2c0-0.1,0.1-0.2,0.1-0.3c0.1,0,0.1,0,0.2,0
		C119.4,38.9,119.4,38.9,119.5,38.9z M123.5,43c0.1,0,0.1,0,0.2,0.1c0,0,0.1,0.1,0.2,0.1c0,0.1-0.1,0.2-0.2,0.2
		c-0.1,0.1-0.1,0.2-0.1,0.2c-0.1-0.1-0.1-0.1-0.2-0.1c0,0-0.1,0-0.2-0.1c0-0.1,0.1-0.2,0.1-0.2C123.5,43.1,123.5,43.1,123.5,43z
		 M111.6,30.6c0.1,0,0.2-0.1,0.5-0.1v0.3c-0.1,0-0.2,0.1-0.2,0.1c-0.1,0-0.2,0-0.2,0.1C111.6,30.7,111.6,30.7,111.6,30.6z
		 M104.7,23.3c0.1,0,0.2,0,0.2,0c0.1,0,0.2,0,0.2,0c0,0.1,0,0.2,0,0.2s0,0.1,0,0.2c-0.1-0.1-0.2-0.1-0.3-0.1c-0.2,0-0.2,0.1-0.3,0.1
		c0,0,0-0.1,0-0.2C104.7,23.5,104.7,23.4,104.7,23.3z M119.3,37.9h0.2c0.1,0,0.1,0,0.2-0.1c0.1,0.1,0.1,0.2,0.1,0.3
		c0,0.2-0.1,0.2-0.1,0.3c-0.2,0-0.2,0-0.3-0.1C119.3,38.2,119.3,38.1,119.3,37.9z M124.2,42.1c0,0.1-0.1,0.2-0.2,0.2
		c-0.1,0.1-0.1,0.2-0.2,0.2c-0.1-0.1-0.2-0.1-0.3-0.1c0.1-0.2,0.2-0.3,0.2-0.5c0.1,0,0.1,0,0.2,0C124.1,42.1,124.2,42.1,124.2,42.1z
		 M113.1,30.6c0,0.1-0.1,0.2-0.1,0.3c-0.1,0-0.2-0.1-0.2-0.1c-0.1,0-0.2,0-0.3,0v-0.3c0.1,0,0.2,0,0.2,0
		C112.9,30.6,113,30.6,113.1,30.6z M106.2,23.4c0,0-0.1,0.1,0,0.2c0,0.1,0,0.2,0,0.2s-0.1,0-0.2,0c-0.1-0.1-0.2-0.1-0.3,0v-0.3
		c0.2,0,0.2,0,0.3,0C106,23.4,106.1,23.4,106.2,23.4z M119.2,36.9c0.1-0.1,0.2-0.1,0.3-0.1c0,0.1,0.1,0.2,0.1,0.5
		c0,0-0.1,0.1-0.2,0.1c0-0.1-0.1-0.2-0.1-0.2C119.3,37.2,119.3,37.1,119.2,36.9z M114.1,30.7l-0.1,0.3c-0.1,0-0.2-0.1-0.2-0.1
		c-0.1,0-0.2,0-0.2-0.1c0-0.2,0-0.2,0.1-0.3C113.8,30.7,114,30.8,114.1,30.7z M107.2,23.6l-0.1,0.3c-0.2,0-0.3,0-0.5-0.1
		c0-0.1,0-0.1,0-0.1s0-0.1,0-0.2c0.2,0,0.2,0,0.3,0.1C106.9,23.6,107.1,23.6,107.2,23.6z M124.2,41.1c0,0,0.1,0.1,0.2,0.1
		c0,0.2,0,0.3-0.1,0.5c-0.2,0-0.2,0-0.3-0.1C124.1,41.5,124.2,41.3,124.2,41.1z M119.3,35.9c0,0.1,0.1,0.2,0.1,0.2
		c0,0.1,0,0.2,0.1,0.2c-0.1,0-0.2,0.1-0.3,0.1L119,36C119,36,119.1,35.9,119.3,35.9z M115.1,31.1c0,0.1-0.1,0.2-0.1,0.2
		s0,0.1-0.1,0.2c-0.2-0.2-0.2-0.2-0.5-0.2c0.1-0.2,0.1-0.3,0.2-0.3C114.8,31,115,31.1,115.1,31.1z M118.7,35.1L118.7,35.1
		c0.2-0.1,0.2-0.1,0.2-0.2c0.1,0.1,0.1,0.2,0.2,0.2c0,0.1,0.1,0.2,0.1,0.3c-0.1,0-0.1,0-0.2,0.1c0,0-0.1,0.1-0.2,0.1
		c0-0.1-0.1-0.2-0.1-0.2C118.7,35.3,118.7,35.2,118.7,35.1z M108.2,23.9l-0.1,0.3c-0.1,0-0.2-0.1-0.2-0.1c-0.1,0-0.2-0.1-0.2-0.2
		c0-0.2,0-0.2,0.1-0.3C107.9,23.7,108.1,23.8,108.2,23.9z M115.5,31.4c0.1,0,0.2,0,0.2,0.1c0.1,0.1,0.2,0.1,0.2,0.2
		c-0.1,0.1-0.1,0.1-0.1,0.2c0,0,0,0.1-0.1,0.1c-0.1,0-0.2-0.1-0.2-0.1c-0.1,0-0.2-0.1-0.2-0.1c0.1-0.1,0.1-0.1,0.1-0.2
		C115.4,31.4,115.5,31.4,115.5,31.4z M118.2,34.2c0.1-0.1,0.1-0.1,0.2-0.1c0,0,0.1,0,0.2-0.1c0,0.1,0.1,0.2,0.2,0.2
		c0.1,0.1,0.1,0.2,0.2,0.2c-0.1,0.1-0.1,0.1-0.2,0.1c0,0-0.1,0-0.1,0.1c-0.1-0.1-0.1-0.2-0.2-0.2C118.3,34.3,118.3,34.3,118.2,34.2z
		 M124.4,40.1c0.1,0,0.1,0,0.2,0c0.1,0,0.1,0,0.2,0c0,0.1-0.1,0.2-0.1,0.2c0,0.1,0,0.2-0.1,0.2c-0.1,0-0.1,0-0.1,0h-0.1
		c0-0.1,0-0.2,0-0.2C124.4,40.3,124.4,40.2,124.4,40.1z M108.6,23.9c0.1,0,0.2,0.1,0.2,0.1c0.1,0,0.2,0.1,0.2,0.1
		c0,0.2,0,0.2-0.1,0.3c-0.2-0.1-0.3-0.2-0.5-0.2C108.6,24.2,108.6,24.1,108.6,23.9z M116.4,31.8c0.1,0.1,0.2,0.1,0.2,0.2
		c0.1,0.1,0.2,0.1,0.2,0.2l-0.2,0.2c-0.2-0.2-0.3-0.2-0.4-0.3C116.4,32,116.4,32,116.4,31.8C116.4,32,116.4,31.9,116.4,31.8z
		 M117.7,33.4c0.1-0.1,0.2-0.2,0.2-0.2c0.2,0.2,0.2,0.3,0.3,0.4c-0.1,0-0.2,0.1-0.2,0.2C117.8,33.7,117.7,33.5,117.7,33.4z
		 M117,32.7l0.2-0.2l0.4,0.4c-0.1,0.1-0.1,0.1-0.2,0.1c0,0-0.1,0-0.2,0.1L117,32.7z M109.5,24.4c0.2,0,0.2,0,0.2,0.1
		c0.1,0.1,0.1,0.1,0.2,0.2c0,0.1,0,0.1-0.1,0.2c0,0-0.1,0.1-0.1,0.2c-0.1,0-0.2-0.1-0.5-0.2c0.1-0.1,0.1-0.1,0.1-0.2
		C109.5,24.5,109.5,24.4,109.5,24.4z M124.5,39.2h0.3c0,0.2,0,0.4-0.1,0.5c-0.2,0-0.2,0-0.3-0.1c0-0.1,0.1-0.2,0.1-0.2
		C124.5,39.3,124.5,39.2,124.5,39.2z M110.5,24.9c0.2,0,0.2,0,0.3,0.1c0.1,0.1,0.2,0.1,0.2,0.2c-0.1,0.1-0.2,0.2-0.2,0.3
		c-0.1-0.1-0.2-0.2-0.5-0.3C110.5,25,110.5,25,110.5,24.9C110.5,24.9,110.5,24.9,110.5,24.9z M111.8,25.6c-0.1,0.1-0.2,0.2-0.2,0.3
		c-0.1-0.1-0.2-0.1-0.2-0.2c-0.1-0.1-0.2-0.1-0.2-0.2l0.1-0.1c0-0.1,0.1-0.1,0.1-0.1c0.1,0,0.2,0.1,0.2,0.2
		C111.6,25.5,111.7,25.6,111.8,25.6z M112.6,26.2l-0.2,0.2c-0.2-0.2-0.3-0.2-0.4-0.3l0.2-0.2c0.1,0.1,0.2,0.2,0.2,0.2
		C112.5,26.2,112.5,26.2,112.6,26.2z M112.6,26.2c0.1,0,0.2,0,0.2,0c0.1,0,0.2,0,0.2,0c0.1,0.1,0.1,0.2,0,0.3c-0.1,0-0.2-0.1-0.2,0
		c-0.1,0-0.2,0-0.2,0V26.2z M124.9,38.2c0,0.1-0.1,0.2,0,0.2c0,0.1,0,0.2,0,0.2h-0.3c0-0.2,0-0.4-0.1-0.5
		C124.7,38.1,124.8,38.1,124.9,38.2z M113.6,26.2c0.2,0,0.2,0,0.3,0s0.2,0,0.2,0.1v0.1c0,0.1,0,0.1,0,0.1s-0.1,0-0.2,0
		c-0.2,0-0.2,0-0.2,0C113.6,26.4,113.6,26.4,113.6,26.2C113.6,26.3,113.6,26.3,113.6,26.2z M124.6,37.2h0.3c0,0.1,0.1,0.2,0.1,0.5
		c0,0-0.1,0-0.2,0s-0.1,0-0.2,0c-0.1-0.1-0.1-0.2-0.1-0.2C124.6,37.3,124.6,37.3,124.6,37.2z M114.6,26.3c0.2,0,0.4,0,0.5,0.1v0.3
		h-0.3c-0.1,0-0.1,0-0.2-0.1h-0.1c-0.1-0.1-0.1-0.1,0-0.2C114.7,26.4,114.7,26.4,114.6,26.3z M124.8,36.4c0,0.1,0,0.2,0.1,0.2
		c-0.1,0-0.2,0.1-0.3,0.1c0-0.1-0.1-0.2-0.1-0.2c0-0.1,0-0.2-0.1-0.2l0.3-0.1C124.8,36.3,124.8,36.3,124.8,36.4z M116.1,26.6
		l-0.1,0.3c-0.1,0-0.2-0.1-0.2-0.1c-0.1,0-0.2,0-0.2-0.1c0-0.2,0-0.2,0.1-0.3c0.1,0,0.2,0.1,0.2,0.1C116,26.5,116.1,26.5,116.1,26.6
		z M124.3,35.3c0.2,0,0.2,0,0.3-0.1c0,0.2,0,0.2,0.1,0.3c0,0.1,0.1,0.2,0.1,0.2l-0.3,0.1C124.3,35.6,124.3,35.4,124.3,35.3z
		 M117,26.9c0,0.1,0,0.1-0.1,0.2c0,0-0.1,0.1-0.1,0.2c-0.2-0.1-0.3-0.2-0.5-0.2c0-0.1,0-0.1,0-0.1v-0.1c0.2,0,0.2,0,0.3,0.1
		C116.9,26.8,117,26.8,117,26.9z M124,34.3c0.2,0,0.2,0,0.3-0.1c0.1,0.2,0.2,0.3,0.2,0.5c0,0-0.2,0.1-0.3,0.2c0-0.1-0.1-0.2-0.1-0.2
		C124,34.4,124,34.3,124,34.3z M118,27.3c-0.1,0.1-0.2,0.2-0.2,0.2c-0.2,0-0.2,0-0.3-0.1c-0.1,0-0.2-0.1-0.2-0.1l0.1-0.3
		C117.7,27.1,117.8,27.2,118,27.3z M123.6,33.3c0.1,0,0.1,0,0.2-0.1c0,0,0.1-0.1,0.2-0.1c0.1,0.2,0.2,0.3,0.2,0.4
		c0,0-0.2,0.1-0.3,0.2C123.8,33.7,123.7,33.5,123.6,33.3z M118.4,27.5c0.2,0,0.2,0,0.2,0.1c0.1,0.1,0.1,0.1,0.2,0.2
		c-0.1,0.2-0.1,0.3-0.2,0.3c-0.1-0.1-0.2-0.2-0.5-0.3C118.3,27.7,118.3,27.7,118.4,27.5C118.4,27.6,118.4,27.5,118.4,27.5z
		 M123.2,32.5c0.1-0.1,0.2-0.2,0.2-0.2c0,0.1,0.1,0.2,0.1,0.2c0.1,0.1,0.1,0.1,0.1,0.2c-0.1,0.1-0.2,0.2-0.3,0.2
		C123.4,32.8,123.3,32.7,123.2,32.5z M119.3,28c0.2,0,0.3,0.1,0.5,0.3c-0.1,0.1-0.2,0.2-0.2,0.2c-0.1,0-0.2-0.1-0.2-0.2
		c-0.1-0.1-0.2-0.1-0.2-0.2C119.3,28.1,119.3,28.1,119.3,28C119.3,28.1,119.3,28.1,119.3,28z M122.7,31.7l0.2-0.2
		c0,0.1,0.1,0.2,0.2,0.2c0.1,0.1,0.1,0.2,0.2,0.2c-0.1,0.1-0.2,0.2-0.2,0.2c-0.1-0.1-0.1-0.2-0.2-0.2
		C122.8,31.8,122.8,31.7,122.7,31.7z M120.2,28.6c0.1,0.1,0.2,0.1,0.2,0.2c0.1,0,0.2,0.1,0.2,0.2s-0.1,0.2-0.2,0.3
		c-0.2-0.2-0.3-0.2-0.4-0.3L120.2,28.6z M122.1,30.8c0.1,0,0.2-0.1,0.3-0.2c0.1,0.1,0.1,0.2,0.2,0.2c0.1,0.1,0.1,0.2,0.2,0.2
		c-0.1,0-0.2,0.1-0.3,0.2C122.3,31.1,122.2,31,122.1,30.8z M121.2,29.4l0.2,0.2l-0.2,0.2l-0.3-0.3c0.1-0.1,0.1-0.1,0.1-0.2
		c0,0,0-0.1,0.1-0.1S121,29.2,121.2,29.4C121.1,29.4,121.1,29.4,121.2,29.4z M121.7,29.9l0.2,0.2l0.2,0.2l-0.2,0.2l-0.4-0.4
		L121.7,29.9z"/>
	<path fill="#873300" d="M116.2,66.3c0,0,3.7-6,3.1-9.7c-0.7-3.7-4.1-17.4-4.1-17.4s-1.7-5.4-3.1-4.7l-1.8,0.8c0,0-0.9-5.6-2.6-5.1
		c-1.7,0.5-1.8,1.1-1.8,1.1s-1.4-2.3-2.6-1.8c-1.2,0.5-3.7,1.8-3.4,4.4l-0.3,1.7c0,0-0.9-0.8-2.3-0.2c-1.4,0.6-2.4,2.3-1.5,4.6
		c0.9,2.3,1.1,7,1.2,8.2c0.2,1.2,0.5,6.5,0.8,8c0.3,1.5,1.7,3.7,2.3,5.4c0.6,1.7,2,6.5,1.4,8c-0.6,1.5-0.9,3.8-2.8,6.2
		c-1.8,2.3-3.2,6-2,6.8s2.1,0,2.8-1.1c0.6-1.1,2.8-2.1,4.1-3.8c1.4-1.7,2.6-2.1,4.3-3.2C109.6,73.2,115.5,68.2,116.2,66.3z"/>
	<path fill="#FFFFFF" d="M12.2,221l0.5,0.7c-1.4,0.1-2.8-0.1-3.9-0.5c-1.2-0.4-2.4-1-3.4-1.8c-1.1-0.8-2-1.8-2.8-3.1
		c-0.4-0.6-0.8-1.4-1.1-2.1c-0.4-0.8-0.6-1.7-0.8-2.5c-0.2,0-0.2,0-0.4,0s-0.3,0-0.4,0c0.1-0.4,0.2-0.8,0.3-1.2
		c0.2-0.4,0.2-0.8,0.4-1.3s0.2-0.8,0.4-1.3c0.1-0.5,0.2-0.8,0.4-1.2c0.2,0.8,0.4,1.8,0.6,2.6c0.2,0.8,0.4,1.8,0.5,2.6
		c-0.1,0-0.2,0-0.3,0s-0.2,0-0.3,0c0.4,1.6,0.9,2.9,1.7,4c0.8,1.1,1.6,2,2.4,2.6c0.9,0.7,1.8,1.2,2.8,1.6c1,0.4,2.1,0.5,3.2,0.5
		L12.2,221z M20.1,225.8l-0.3,0.3c0,0-0.1,0.1-0.2,0.1c-0.5,0.4-1,0.7-1.7,1c-0.6,0.3-1.3,0.6-2,0.8s-1.3,0.3-1.9,0.4
		c-0.6,0.1-1.2,0.1-1.8,0c-1.1-0.1-2.1-0.3-3.1-0.7c-1-0.4-1.9-0.8-2.8-1.5c-0.1-0.1-0.1-0.1-0.2-0.2S6,226,6,226s-0.1,0.1-0.2,0.2
		s-0.2,0.2-0.2,0.2c-0.1,0.1-0.1,0.1-0.2,0.2c-0.1,0.1-0.1,0.1-0.2,0.1c-0.4-0.8-0.8-1.6-1.1-2.4s-0.8-1.6-1.1-2.4v-0.1
		c0.7,0.5,1.5,1.1,2.1,1.5c0.7,0.5,1.5,1,2.1,1.5c-0.1,0.1-0.2,0.2-0.2,0.2c-0.1,0.1-0.2,0.2-0.2,0.2c0.8,0.5,1.6,1,2.5,1.4
		c0.9,0.3,1.8,0.5,2.8,0.6c1.1,0.1,2.1,0,3.2-0.3c0.5-0.2,1.1-0.3,1.8-0.6c0.6-0.3,1.1-0.6,1.6-0.9L20.1,225.8z M36.6,216.1
		c0.2,2.1,0.1,4.1-0.6,5.7c-0.3,0.8-0.8,1.7-1.3,2.4c-0.5,0.8-1.3,1.4-2.1,2l0.3,0.8h-0.1c-0.7-0.1-1.4-0.2-2.1-0.2
		c-0.7-0.1-1.4-0.1-2.1-0.2c0.5-0.4,1.1-0.8,1.7-1.1c0.5-0.4,1.1-0.8,1.7-1.1c0,0.1,0.1,0.2,0.1,0.3c0,0.1,0.1,0.2,0.1,0.3
		c0.7-0.5,1.3-1.1,1.8-1.7c0.5-0.6,0.8-1.3,1.1-2.1c0.5-1.5,0.8-3.1,0.6-4.7L36.6,216.1z M8.5,212.4c-0.1,0-0.2,0-0.2-0.1
		c-0.8-0.3-1.5-0.8-2.2-1.4s-1.3-1.3-1.8-2.1C3.6,208,3,207,2.5,205.8c-0.5-1.1-0.8-2.4-1.1-3.6c-0.2,0-0.2,0-0.4,0s-0.2,0-0.4,0
		l0.1-0.2c0.2-0.8,0.5-1.7,0.7-2.5s0.5-1.7,0.7-2.5c0.2,0.9,0.4,1.8,0.5,2.6c0.2,0.8,0.4,1.8,0.6,2.6c-0.1,0-0.2,0-0.3,0
		s-0.2,0-0.3,0c0.2,0.9,0.5,1.9,0.8,3c0.4,1.1,0.8,1.9,1.3,2.6c1,1.5,2.1,2.5,3.6,3L8.5,212.4z"/>
	<path display="none" fill="#873300" d="M21.7,187.8c0,0,2.4,6.3,1.4,8.1c-1,1.8-1.9,6.3-2.7,7.6c-0.8,1.4-4.6,6.3-5,8.3
		c-0.4,2-0.8,7.6,1.4,7.6c0,0,0.8,2.1,2.9,2.3c0,0-0.2,1.5,1.7,1.4c0,0,1.4,2.1,2.9,1.1c0,0,0.9-3.1,0.4-3.8s0.8-3.7,1.4-4.7
		c0.6-1.1,1.9-4.2,1.9-4.2s1.7-0.6,1.9,0.8c0.2,1.4-0.9,2.9-0.6,4.4s2.1,3.2,3.2,2.9c0,0-0.2-1.7,0.6-3.1c0.8-1.4,0.5-6,0.2-6.7
		c-0.8-1.5-1.1-9-1.1-9c-0.4-2.4,0-4.4,0.8-6.3s4-3.2,5.5-6.9c1.5-3.7-2.4-7.5-2.4-7.5L22.5,180L21.7,187.8z"/>
	<circle fill="none" stroke="#FFFFFF" stroke-miterlimit="10" cx="97.8" cy="80.5" r="3.4"/>
	<g>
		
			<circle fill="none" stroke="#FFFFFF" stroke-width="0.5" stroke-linecap="round" stroke-miterlimit="10" stroke-dasharray="0.9823,0.9823" cx="97.8" cy="80.5" r="5.3"/>
	</g>
	<g>
		<circle fill="none" stroke="#FFFFFF" stroke-miterlimit="10" cx="97.8" cy="37.7" r="3.4"/>
		<path fill="none" stroke="#FFFFFF" stroke-miterlimit="10" d="M112.3,32c-0.5,0-0.8,0.1-1.2,0.2c0-0.2,0.1-0.4,0.1-0.6
			c0-1.9-1.5-3.4-3.4-3.4c-0.7,0-1.4,0.2-1.9,0.5c-0.6-0.8-1.6-1.3-2.7-1.3c-1.9,0-3.4,1.5-3.4,3.4s1.5,3.4,3.4,3.4
			c0.7,0,1.4-0.2,1.9-0.5c0.6,0.8,1.6,1.3,2.7,1.3c0.5,0,0.8-0.1,1.2-0.2c0,0.2-0.1,0.4-0.1,0.6c0,1.9,1.5,3.4,3.4,3.4
			s3.4-1.5,3.4-3.4S114.2,32,112.3,32z"/>
	</g>
	<g>
		<g>
			<path fill="none" stroke="#FFFFFF" stroke-width="0.5" stroke-linecap="round" stroke-miterlimit="10" d="M114,30.4
				c-0.2-0.1-0.2-0.1-0.4-0.1c0-0.2-0.1-0.2-0.1-0.4"/>
			
				<path fill="none" stroke="#FFFFFF" stroke-width="0.5" stroke-linecap="round" stroke-miterlimit="10" stroke-dasharray="0.9861,0.9861" d="
				M113.2,29.2c-0.8-1.8-2.7-2.9-4.7-2.9c-0.5,0-0.9,0.1-1.3,0.2"/>
			<path fill="none" stroke="#FFFFFF" stroke-width="0.5" stroke-linecap="round" stroke-miterlimit="10" d="M106.8,26.5
				c-0.2,0.1-0.2,0.1-0.4,0.2c-0.1-0.1-0.2-0.2-0.3-0.2"/>
			
				<path fill="none" stroke="#FFFFFF" stroke-width="0.5" stroke-linecap="round" stroke-miterlimit="10" stroke-dasharray="0.9797,0.9797" d="
				M105.5,26.1c-0.7-0.4-1.5-0.5-2.4-0.5c-2.9,0-5.3,2.4-5.3,5.3c0,0.3,0,0.6,0.1,0.9"/>
			<path fill="none" stroke="#FFFFFF" stroke-width="0.5" stroke-linecap="round" stroke-miterlimit="10" d="M98,32
				c0,0.2,0.1,0.2,0.1,0.4c-0.2,0-0.2,0-0.4,0l0,0"/>
			
				<path fill="none" stroke="#FFFFFF" stroke-width="0.5" stroke-linecap="round" stroke-miterlimit="10" stroke-dasharray="0.9725,0.9725" d="
				M97,32.5c-2.5,0.4-4.5,2.6-4.5,5.2c0,2.9,2.4,5.3,5.3,5.3s5.3-2.4,5.3-5.3c0-0.3,0-0.6-0.1-0.9"/>
			<path fill="none" stroke="#FFFFFF" stroke-width="0.5" stroke-linecap="round" stroke-miterlimit="10" d="M102.9,36.4
				c0-0.2-0.1-0.2-0.1-0.4c0.1,0,0.2,0,0.4,0l0,0"/>
			
				<path fill="none" stroke="#FFFFFF" stroke-width="0.5" stroke-linecap="round" stroke-miterlimit="10" stroke-dasharray="0.7289,0.7289" d="
				M103.7,36c0.3,0,0.5-0.1,0.8-0.2"/>
			<path fill="none" stroke="#FFFFFF" stroke-width="0.5" stroke-linecap="round" stroke-miterlimit="10" d="M104.8,35.8
				c0.2-0.1,0.2-0.1,0.4-0.2c0.1,0.1,0.2,0.2,0.3,0.2"/>
			
				<path fill="none" stroke="#FFFFFF" stroke-width="0.5" stroke-linecap="round" stroke-miterlimit="10" stroke-dasharray="0.6635,0.6635" d="
				M106,36.2c0.2,0.2,0.5,0.2,0.7,0.3"/>
			<path fill="none" stroke="#FFFFFF" stroke-width="0.5" stroke-linecap="round" stroke-miterlimit="10" d="M106.9,36.6
				c0.2,0.1,0.2,0.1,0.4,0.1c0,0.2,0.1,0.2,0.1,0.4"/>
			
				<path fill="none" stroke="#FFFFFF" stroke-width="0.5" stroke-linecap="round" stroke-miterlimit="10" stroke-dasharray="0.9666,0.9666" d="
				M107.6,37.7c0.8,1.8,2.7,2.9,4.7,2.9c2.9,0,5.3-2.4,5.3-5.3c0-2.2-1.4-4.1-3.3-4.9"/>
		</g>
	</g>
</g>
<g id="Layer_3" display="none">
	<g display="inline">
		<g>
			<path d="M121.7,221.1c1.9,5.3,4.4,10.2,9.2,13.3c2.9,1.9,8.6,3.7,12,2.6c0.8-0.3,0.7-1.1-0.2-0.8c-3.3,1.1-8.8-1.3-11.6-3.1
				c-4.2-2.8-6.3-7.9-8-12.4C122.9,220.1,121.5,220.6,121.7,221.1L121.7,221.1z"/>
		</g>
	</g>
	<g display="inline">
		<g>
			<path d="M123.7,229.2c0.2,6.6,2.8,12.9,1.7,19.6c-0.1,0.5,1.4,0.2,1.5-0.2c1.1-6.7-1.5-13.1-1.7-19.7
				C125.2,228.4,123.7,228.6,123.7,229.2L123.7,229.2z"/>
		</g>
	</g>
	<g display="inline">
		<g>
			<path d="M121.2,249c-9.6,9.6-15.3,21-14.1,34.8c0.3,3.7,1.3,7.3,2.3,10.8c1.1,4,1.5,7.6,1.7,11.7c0.2,4.8,2.1,8.1,7.1,8.3
				c0.7,0,1.5-0.9,0.5-1c-6.9-0.3-6-6.8-6.2-11.9c-0.2-6.2-3.1-12.2-3.9-18.4c-1.6-13.3,4.6-24.9,13.8-34
				C123,248.8,121.6,248.7,121.2,249L121.2,249z"/>
		</g>
	</g>
	<g display="inline">
		<g>
			<path d="M111.8,295.5c5,1.1,10.1-1.8,12.6-6.1c0.5-0.8-1.1-0.8-1.5-0.2c-2.1,3.7-6.4,6.1-10.7,5.2
				C111.6,294.2,110.8,295.2,111.8,295.5L111.8,295.5z"/>
		</g>
	</g>
	<g display="inline">
		<g>
			<path d="M136.7,253.7c-1.4,5.7-0.6,11.7-0.9,17.4c-0.4,7.3-1.3,14.6-3.1,21.6c-2.6,10.5-6.6,20.3-15,27.5
				c-0.4,0.3,1.1,0.2,1.4-0.1c8.2-7,12.2-16.3,14.8-26.5c1.6-6,2.4-12.3,3.1-18.5c0.7-7.1-0.5-14.8,1.2-21.7
				C138.2,253.1,136.8,253.3,136.7,253.7L136.7,253.7z"/>
		</g>
	</g>
	<g display="inline">
		<g>
			<path d="M115.4,249c0-0.6-0.3-0.6-0.8-0.1c-0.4,0.2-0.8,0.4-1.2,0.5c-1.1,0.5-2.3,1.1-3.4,1.6c-2.2,1.1-4.3,2.4-6.3,3.6
				c-5.3,3.4-9.8,7.8-12.7,13.3c-3.5,6.7-4.4,14.5-5,21.9c-0.3,3.8-0.5,7.6-0.4,11.4c0.2,5.1,0.4,9.9-1.7,14.8
				c-0.3,0.7,1.1,0.6,1.4,0.1c3-7.1,1.6-15.1,1.9-22.6c0.4-8.3,1.2-16.7,4.6-24.4c2.9-6.7,8.6-11.4,14.6-15.1
				c2.2-1.4,4.5-2.5,6.9-3.6c0.8-0.4,3.1-0.9,3.4-1.9c0.1-0.2,0-0.5-0.2-0.5c-0.1,0-0.1,0-0.2,0C115.7,248,114.4,248.8,115.4,249
				L115.4,249z"/>
		</g>
	</g>
	<g display="inline">
		<g>
			<path d="M80.6,321.2c-5,4.7-4.2,11.9-4.8,18.1c-0.4,4.5-2.1,9-3.4,13.4c-1.5,5.1-2.8,10.3-4,15.4c-0.2,0.5,1.4,0.2,1.5-0.2
				c2.1-8.7,4.6-17.2,6.9-25.9c1.8-6.8-0.8-15.2,5-20.6C82.3,320.8,80.9,320.9,80.6,321.2L80.6,321.2z"/>
		</g>
	</g>
	<g display="inline">
		<g>
			<path d="M91.4,370.6c-1.6-1.9-0.5-6-0.1-8.3c0.8-3.9,2.3-7.7,4.4-11.1c2.8-4.6,8.8-7,8.8-13c0-0.8-1.5-0.6-1.5,0.1
				c0,4.1-2.8,6-5.4,8.6c-2.6,2.6-4.4,5.7-5.8,9c-1.5,3.5-4.6,11.9-1.7,15.2C90.6,371.8,92,371.1,91.4,370.6L91.4,370.6z"/>
		</g>
	</g>
	<g display="inline">
		<g>
			<path d="M95.4,297.8c1.6,9.9,3.9,19.4,7.7,28.7c3.6,8.9,7.1,18.4,7.7,28c0,0.5,1.5,0.2,1.5-0.4c-0.5-9.7-4.2-19-7.7-28
				c-3.6-9.3-6-18.7-7.7-28.7C96.8,296.9,95.3,297.3,95.4,297.8L95.4,297.8z"/>
		</g>
	</g>
	<g display="inline">
		<g>
			<path d="M106.3,362.4c3.9,9.6,12.3-2.9,16-6c-0.5,0.1-0.8,0.1-1.3,0.2c3.4,2.7,8,6.7,12.2,3.5c5.6-4.1,7.7-11.1,12.4-16.1
				c0.6-0.6-0.8-0.6-1.1-0.2c-2.9,3.1-4.9,7-7.3,10.5c-1.5,2.2-3.4,4.7-5.9,6c-2.4,1.2-7.1-3-8.8-4.4c-0.4-0.3-1-0.1-1.3,0.2
				c-3.1,2.8-10.2,13.6-13.3,5.9C107.6,361.5,106.2,362,106.3,362.4L106.3,362.4z"/>
		</g>
	</g>
	<g display="inline">
		<g>
			<path d="M67,374.7c1.4,3.1,0.5,6.9-0.1,10c-0.8,4.2-2.1,8.4-3.1,12.5c-1,4.1-3.8,13.7,2.2,15.1c0.4,0.1,1.7-0.5,1.2-0.6
				c-6.6-1.7-2.3-13.9-1.2-18c1.4-5.5,4.9-13.9,2.4-19.6C68.3,374,66.9,374.5,67,374.7L67,374.7z"/>
		</g>
	</g>
	<g display="inline">
		<g>
			<path d="M73.7,388.9c-2.8,4.7-5.1,9.9-6,15.5c-0.3,1.9,1.1,12.2-0.8,12.5c-0.8,0.2-1.2,1.1-0.2,0.9c3.3-0.5,2.6-5.1,2.5-7.6
				c-0.3-7.7,2-14.4,6-21.1C75.5,388.3,74.1,388.4,73.7,388.9L73.7,388.9z"/>
		</g>
	</g>
	<g display="inline">
		<g>
			<path d="M82.6,374.2c-4,3.4-4.7,7.4-3.7,12.4c0.6,2.9,1.5,5.7,1.8,8.7c0.2,1.8,0.2,3.4-0.9,5c-0.6,1-2.9,3.6-3.1,1.1
				c-0.1-0.7-1.5-0.4-1.5,0.4c0.5,5.4,5.9-0.7,6.8-2.8c1.1-2.6-0.2-7.3-0.9-9.9c-1.6-5.2-2.2-10.3,2.4-14.2
				C84.4,374.3,83.2,373.7,82.6,374.2L82.6,374.2z"/>
		</g>
	</g>
	<g display="inline">
		<g>
			<path d="M68,372.4c5.7-4.9,17.4-4.7,22.4,1.1c0.3,0.4,1.8-0.2,1.4-0.6c-5.6-6.7-18.7-6.3-24.9-0.8
				C66.2,372.7,67.6,372.7,68,372.4L68,372.4z"/>
		</g>
	</g>
	<g display="inline">
		<g>
			<path d="M119.4,211.9c-1.8-2.1-4.1,0.5-4.6,2.2c-0.3,1.1-0.2,2.3,0.5,3.2c1.1,1.3,3.1,1.2,4.6,1c0.8-0.1,1.2-1.1,0.2-0.9
				c-2.1,0.3-4.1-0.2-3.9-2.8c0.1-0.8,0.4-1.5,0.8-2.1c0.4-0.5,0.6-0.6,1-0.1S119.9,212.5,119.4,211.9L119.4,211.9z"/>
		</g>
	</g>
	<g display="inline">
		<g>
			<path d="M119.2,209.4c-5.6-8.9,2.3-20.1,10.6-24c6.3-3,13.8,0.4,17.6,5.6c2.9,3.9,3.7,9.1,3.4,13.8c0,0.2,1.5,0,1.5-0.4
				c0.8-11.6-7.8-23.7-20.6-20c-9.7,2.8-20.2,15.5-13.8,25.5C117.9,210.1,119.3,209.6,119.2,209.4L119.2,209.4z"/>
		</g>
	</g>
	<g display="inline">
		<g>
			<path d="M151,270.8c12.2,4.4,27.9,18,22.4,32.4c-0.3,0.8,1.1,0.8,1.4,0.2c5.7-15.1-10.2-29-22.9-33.6
				C151.2,269.5,150.1,270.4,151,270.8L151,270.8z"/>
		</g>
	</g>
	<g display="inline">
		<g>
			<path d="M166.6,233.7c7.8,2.5,14.5,7.6,18.6,14.8c4.4,7.7,3.3,16.4,0.8,24.5c-5.5,17.5-5,36.9-5,55c0,0.6,1.5,0.3,1.5-0.2
				c0-20,0.6-39.3,6.1-58.7c4.7-16.4-5.5-31.2-21-36.3C167.1,232.7,165.8,233.4,166.6,233.7L166.6,233.7z"/>
		</g>
	</g>
	<g display="inline">
		<g>
			<path d="M173.3,330.6c-10.3-2.2-17.7,10.3-21.6,17.7c-0.2,0.2,1.2,0.2,1.5-0.2c3.4-6.3,10.3-18.7,19-16.9
				C172.5,331.3,173.8,330.7,173.3,330.6L173.3,330.6z"/>
		</g>
	</g>
	<g display="inline">
		<g>
			<path d="M155.8,253.9c3.3-4.4,7.6-7.3,8.7-12.9c1.5-7.7-2.4-15.6-2.3-23.3c0-0.8-1.5-0.6-1.5,0.1c-0.1,7,2.5,13.7,2.5,20.7
				c0,7-5,10-8.7,15C153.9,254.1,155.3,254.4,155.8,253.9L155.8,253.9z"/>
		</g>
	</g>
	<g display="inline">
		<g>
			<path d="M153.1,255.3c-1.7,1.8-2.9,4-4.1,6c-0.9,1.5-1.8,3.1-2.9,4.4c-0.5,0.6-5.3,5.7-5.7,2.7c-1.1-7.6,5-12.9,8.2-19
				c0.2-0.3-1.2-0.2-1.5,0.2c-3.7,7-9.3,11.9-8,20.4c0,0.1,0.2,0.2,0.2,0.2c8.3,0.3,10.6-10.1,15.1-15
				C154.8,254.9,153.4,255,153.1,255.3L153.1,255.3z"/>
		</g>
	</g>
	<g display="inline">
		<g>
			<path d="M142.7,222.7c-1.2,9.7,7.8,17.6,4.7,27.3c-0.2,0.4,1.3,0.2,1.5-0.2c3.1-9.8-5.9-17.6-4.7-27.3
				C144.2,222,142.7,222.3,142.7,222.7L142.7,222.7z"/>
		</g>
	</g>
	<g display="inline">
		<g>
			<path d="M143.5,222.4c0-0.5,0.2-3.7,1.9-3.1c0.8,0.3,1.3,1.1,1.7,1.9c0.6,1.3,0.8,2.8,1.1,4.2c0.6,3.1,0.9,6.4,2.8,9
				c0.2,0.4,1.6-0.2,1.5-0.4c-3.1-4.1-1.8-9.9-4.4-14.1c-0.8-1.4-2.4-1.7-3.8-1.3c-1.8,0.5-2.1,2.5-2.3,4.1
				C142,223,143.5,222.8,143.5,222.4L143.5,222.4z"/>
		</g>
	</g>
	<g display="inline">
		<g>
			<path d="M148.2,218.4c-0.2-1.1-1-6,3-3.7c1.1,0.7,1.6,2,1.9,3.1c0.5,1.8,0.4,3.9,0.3,5.8c-0.1,2.8-0.2,5.6,1.3,8
				c0.3,0.5,1.8,0,1.4-0.6c-2.9-4.6,1.3-12.6-3.1-16.4c-3.7-3.2-7.3-0.2-6.3,4.3C146.8,219.4,148.3,219.1,148.2,218.4L148.2,218.4z"
				/>
		</g>
	</g>
	<g display="inline">
		<g>
			<path d="M153.5,217.1c-0.2-1.3,0.8-2.5,1.8-1.2c0.4,0.5,0.5,1.1,0.7,1.8c0.5,1.6,0.4,3.4,0.5,5.1c0.1,2.3-0.2,5,0.8,7.1
				c0.3,0.6,1.8,0.2,1.5-0.4c-2-4.2,0.2-9.4-1.8-13.7c-0.5-1.1-1.9-2-3.1-1.7c-1.8,0.4-2,1.8-1.8,3.4
				C152.1,218.1,153.5,217.8,153.5,217.1L153.5,217.1z"/>
		</g>
	</g>
	<g display="inline">
		<g>
			<path d="M157.8,219.8c0.2-0.5,0.5-1.1,1-1.4c0.2-0.2,0.8,0.4,0.8,0.5c0.8,0.6,1,1.7,1,2.6c0,0.2,1.5,0,1.5-0.4
				c0-1.4-0.8-3.1-2.3-3.3c-1.6-0.2-2.9,0.8-3.5,2.2C156.3,220.3,157.7,220.2,157.8,219.8L157.8,219.8z"/>
		</g>
	</g>
	<g display="inline">
		<g>
			<path d="M104.7,364.4c-9.4,6.5-10.9,17.7-10.3,28.5c0.4,6.7,1.5,13.4,2.4,20c0.6,4.1,1.3,8.3,2,12.5c0.5,3.1,2.7,6.1,1.8,9.4
				c-0.2,0.5,1.4,0.3,1.5-0.2c0.5-2.3-0.3-4.5-1-6.7c-1-3.1-1.4-6.3-1.9-9.6c-1.1-7-2.1-13.9-3-21c-1.4-11.4-1.1-25.2,9.3-32.5
				C106.4,364.3,105.1,364,104.7,364.4L104.7,364.4z"/>
		</g>
	</g>
	<g display="inline">
		<g>
			<path d="M93.4,429.1c-9.1,4.4-9,14.2-6.3,22.7c2,6.1,5.4,11.8,8.2,17.6c3.2,7,6,14.1,8.3,21.3c0.2,0.7,1.7,0.3,1.5-0.4
				c-3.8-12.2-9.6-23.5-15-35c-3.8-8.3-6-20.5,3.9-25.3C95,429.6,94.2,428.7,93.4,429.1L93.4,429.1z"/>
		</g>
	</g>
	<g display="inline">
		<g>
			<path d="M147.7,474.8c-5.3,13.5-7.6,28.3-15.6,40.6c-6.9,10.6-19.8,15.6-24,28.1c-0.3,0.8,1.2,0.8,1.5,0.2
				c4.2-12.5,17.5-18.1,24.6-28.8c7.9-12,9.9-26.7,15.1-39.9C149.5,474.2,148,474.1,147.7,474.8L147.7,474.8z"/>
		</g>
	</g>
	<g display="inline">
		<g>
			<path d="M99.4,492.7c-2.5,4.8-1.1,11-0.8,16.1c0.6,7.6-0.9,15.6-2.1,23.2c-1,6.7-9,21.2,0.9,24.6c0.3,0.1,1.6-0.4,1.2-0.5
				c-9.6-3.2-1.7-17.8-0.6-24.4c1.1-6.8,2.4-14.1,2.1-21c-0.2-5.7-2.2-12.7,0.6-18.1C100.9,492.2,99.5,492.3,99.4,492.7L99.4,492.7z
				"/>
		</g>
	</g>
	<g display="inline">
		<g>
			<path d="M128.7,522.7c-1,4-1.8,8.1-2.8,12.1c-1.1,3.9-3.1,7.1-5,10.7c-1.4,2.8-1.1,5.5-1.8,8.3c-1.5,5.7-10.2,5.2-14.8,4.4
				c-0.3-0.1-1.6,0.5-1.2,0.5c5.6,0.8,14.8,1.1,17.4-5.3c0.5-1.2,0.4-2.8,0.5-4.1c0.3-3.2,2.1-6,3.7-8.7c3.1-5.6,3.7-12.1,5.4-18.2
				C130.2,522.1,128.8,522.4,128.7,522.7L128.7,522.7z"/>
		</g>
	</g>
	<g display="inline">
		<g>
			<path d="M136,405.1c1,4.2,3.9,7.4,6.6,10.7c3.5,4.3,5.8,9.3,7.8,14.5c4.1,10.6,3.3,21.9,3.8,33c0.5,10.2,7,16.4,11.6,24.9
				c2.5,4.7,4.9,13.1,10.7,14.6c0.4,0.1,1.7-0.5,1.2-0.6c-6.2-1.7-8.6-11.5-11.6-16.4c-2.2-3.7-5-7.1-7.1-10.9
				c-2.5-4.7-3.2-9.6-3.4-14.8c-0.4-10.9-0.2-21.2-4.1-31.5c-1.5-4-3.4-8-6-11.6c-3-4-6.7-7.4-8-12.4
				C137.4,404.3,135.9,404.7,136,405.1L136,405.1z"/>
		</g>
	</g>
	<g display="inline">
		<g>
			<path d="M180,333.8c-1.1,6.7,2.7,13,5.7,18.7c0.2,0.4,1.6-0.2,1.5-0.4c-3.1-5.7-6.8-12-5.7-18.7
				C181.5,333.3,180.1,333.3,180,333.8L180,333.8z"/>
		</g>
	</g>
	<g display="inline">
		<g>
			<path d="M184.4,358.1c0.5,4.2,4.4,7.3,6.4,10.8c3.2,5.5,5.6,11.5,8.1,17.3c4.6,10.7,6.3,21.6,7,33.2c0.5,8.6,0.4,17.3,0.5,25.9
				c0,6.5,0,14.5,4.1,19.9c0.3,0.5,1.8-0.1,1.4-0.6c-4.5-6-4.1-15.3-4-22.4c0.1-8.3-0.1-16.3-0.5-24.6c-0.7-11-2.5-21.6-6.9-31.8
				c-2.1-5-4.4-10.1-6.9-15c-1-1.9-2.1-3.9-3.4-5.7c-1.8-2.4-4-4.4-4.4-7.4C185.7,357.1,184.3,357.5,184.4,358.1L184.4,358.1z"/>
		</g>
	</g>
	<g display="inline">
		<g>
			<path d="M207.7,474.9c-1.1,7.9,0.2,15.7,0.6,23.6c0.5,8.8-0.8,17.7-1.6,26.4c-0.1,0.8,1.5,0.5,1.5-0.2c0.7-8.3,1.8-16.7,1.7-25
				s-1.8-16.6-0.7-24.9C209.3,474.1,207.8,474.3,207.7,474.9L207.7,474.9z"/>
		</g>
	</g>
	<g display="inline">
		<g>
			<path d="M173.5,510.8c18.4-4.4,40.2,21,22.3,35.1c-0.3,0.2,1.1,0.2,1.4-0.1c8.4-6.6,9-17.1,2.4-25.3
				c-6.2-7.9-16.1-12.5-26.2-10.2C172.5,510.5,172.7,511,173.5,510.8L173.5,510.8z"/>
		</g>
	</g>
	<g display="inline">
		<g>
			<path d="M172.7,523.8c3.4,7.6,5.9,15.6,10.7,22.5c0.4,0.5,1.8,0,1.4-0.6c-4.8-6.7-7.3-14.7-10.6-22.2
				C173.9,522.8,172.4,523.1,172.7,523.8L172.7,523.8z"/>
		</g>
	</g>
	<g display="inline">
		<g>
			<path d="M190,561.1c0.1,6.3,0.8,12.6,0.3,19c-0.3,3.4-3.1,7.8,1.4,9.6c3.4,1.4,7.9-0.9,11.4-0.4c4.5,0.8,8.6,1.8,13.2,0.8
				c0.5-0.2,1.3-0.8,0.3-0.5c-5.1,1.1-9.4-0.8-14.4-1.1c-3.7-0.2-9.4,2.9-11.5-1.5c-0.7-1.6,0.3-3.8,0.7-5.4
				c0.5-1.6,0.5-3.2,0.5-4.8c0.3-5.4-0.5-10.7-0.5-16.1C191.5,560.5,190,560.7,190,561.1L190,561.1z"/>
		</g>
	</g>
	<g display="inline">
		<g>
			<path d="M203.3,551.8c2.2,8.4,3.8,16.3,10.6,22.3c4.5,4.1,17.4,9.1,12.2,16.8c-0.4,0.6,1.1,0.5,1.4,0.1
				c4.6-6.7-3.9-11.6-8.8-14.9c-4.3-2.9-7.7-6.4-9.9-11.2c-2-4.2-2.8-9-4-13.5C204.7,550.8,203.2,551.1,203.3,551.8L203.3,551.8z"/>
		</g>
	</g>
	<g display="inline">
		<g>
			<path d="M117.8,564.5c-0.2-0.5-0.5-0.9-0.7-1.3c-0.2-0.5-1.2-0.2-1.4,0.2c-3.1,7.1,1.1,16.9,7.1,21.2c0.5,0.4,1.8-0.4,1.1-0.8
				c-5.7-4-9.8-13.5-6.9-20.1c-0.5,0.1-0.9,0.2-1.4,0.2c0.2,0.5,0.5,0.9,0.7,1.3C116.7,565.8,118.1,565.2,117.8,564.5L117.8,564.5z"
				/>
		</g>
	</g>
	<g display="inline">
		<g>
			<path d="M96,559.8c0.6,5.4-0.2,10.3-2.5,15.1c-1.9,3.9-4.4,5.4-8.1,7.1c-4.2,2.1-8.2,4.9-6,10c0.3,0.7,1.8,0.2,1.5-0.4
				c-2.8-6.7,6-8.6,10.3-11.4c2.7-1.8,4.3-5.7,5.3-8.6c1.5-4,1.6-8.3,1.1-12.4C97.5,558.6,95.9,559,96,559.8L96,559.8z"/>
		</g>
	</g>
	<g display="inline">
		<g>
			<path d="M130.7,212.9c-2.1,3.4-1.8,9.1,1.4,11.7c0.5,0.4,1.8-0.2,1.4-0.6c-3-2.4-3.3-7.8-1.3-11
				C132.5,212.3,131,212.5,130.7,212.9L130.7,212.9z"/>
		</g>
	</g>
	<g display="inline">
		<g>
			<path d="M126.1,197.2c0.8-3.7,5-3.9,8.1-4.2c0.7-0.1,1.3-0.8,0.2-0.7c-3.6,0.4-9,0.8-9.9,5.1
				C124.6,197.8,126.1,197.6,126.1,197.2L126.1,197.2z"/>
		</g>
	</g>
	<g display="inline">
		<g>
			<path d="M122.7,199.8c1.1,8.3,16.8,1.9,15.5-5.7c-0.1-0.6-1.6-0.2-1.5,0.4c1.1,6.3-11.6,12-12.5,5
				C124.1,198.8,122.6,199.2,122.7,199.8L122.7,199.8z"/>
		</g>
	</g>
	<g display="inline">
		<g>
			<path d="M143,194.7c1.7-1.2,4.8-0.2,6.7,0.1c1.4,0.2,2.8,0.5,4.1,0.5c0.5,0,1.6-0.7,0.6-0.7c-3.9-0.2-9-2.6-12.5-0.1
				C141.2,195,142.7,194.9,143,194.7L143,194.7z"/>
		</g>
	</g>
	<g display="inline">
		<g>
			<path d="M142.1,197.1c-1.2,6.7,9.6,6,13.1,3.4c0.3-0.2-1.1-0.1-1.3,0.2c-3.1,2.3-11.2,1.4-10.3-3.9
				C143.6,196.5,142.1,196.7,142.1,197.1L142.1,197.1z"/>
		</g>
	</g>
	<g display="inline">
		<g>
			<path d="M135.7,200.8c-0.6,3.7-1,7.3-0.3,11c0.1,0.3,1.5-0.1,1.5-0.4c-0.6-3.7-0.3-7.3,0.3-11
				C137.2,200.3,135.8,200.4,135.7,200.8L135.7,200.8z"/>
		</g>
	</g>
	<g display="inline">
		<g>
			<path d="M141.4,201.5c-0.1,2.8-1.2,5.8,0.3,8.3c0.2,0.4,1.6-0.2,1.5-0.4c-1.6-2.5-0.4-5.6-0.3-8.3
				C142.8,200.8,141.4,201,141.4,201.5L141.4,201.5z"/>
		</g>
	</g>
	<g display="inline">
		<g>
			<path d="M136.6,212.6c0.7-2.9,4.1-2,6-0.8c0.5,0.3,1.8-0.5,1.1-0.8c-2.8-1.7-7.7-2.3-8.6,1.8
				C134.9,213.4,136.3,213.2,136.6,212.6L136.6,212.6z"/>
		</g>
	</g>
	<g display="inline">
		<g>
			<path d="M121.4,247.7c-2.4,3.6-4.4,7.5-3.7,11.9c0.6,3.9,4.5,6.4,8,7.4c5.7,1.7,12.9-0.5,17.4-4.1c0.3-0.2-1.1-0.2-1.4,0.1
				c-5.2,4.3-13.2,5.4-18.9,1.6c-6.4-4.3-3.4-12,0-17.1C122.9,247.3,121.6,247.4,121.4,247.7L121.4,247.7z"/>
		</g>
	</g>
</g>
<g id="Layer_4" display="none">
	<g display="inline">
		<g>
			<path d="M474.3,265.1c-9.5,5.4-23.8,8.5-27.3,20.3c-0.2,0.5,1.3,0.4,1.5-0.2c3.4-11.5,17.5-14.5,26.8-19.7
				C476.1,265.1,474.8,264.9,474.3,265.1L474.3,265.1z"/>
		</g>
	</g>
	<g display="inline">
		<g>
			<path d="M513.4,262.7c5.4-1.7,11.5-0.3,16.9,1c5.6,1.4,11.1,3.3,16.5,5.4c0.4,0.2,1.8-0.5,1.1-0.7c-5.9-2.2-11.8-4.2-17.9-5.7
				c-5.4-1.3-11.5-2.3-16.9-0.6C512.3,262.4,512.5,263,513.4,262.7L513.4,262.7z"/>
		</g>
	</g>
	<g display="inline">
		<g>
			<path d="M512.9,265.9c-1.6,13.5,0.2,26.9,0.5,40.3c0.2,6.8,0.1,14.1-1.8,20.7c-0.8,2.8-2.7,5.9-6,6.1c-2.4,0.2-4.9-1.4-6.7-2.8
				c-8.6-6.8-9.7-20.3-11.1-30.3c-1.8-12.7-2.5-26.2-6.4-38.4c-0.2-0.5-1.6,0-1.5,0.4c2.3,7.2,3.2,14.8,4.1,22.2
				c0.8,7,2,14.1,3.1,21.1c1.5,9.9,4.1,24.4,15.1,28.2c10.3,3.5,12.1-10.8,12.5-17.4c1.3-16.8-2.4-33.5-0.4-50.3
				C514.5,265.2,513,265.4,512.9,265.9L512.9,265.9z"/>
		</g>
	</g>
	<g display="inline">
		<g>
			<path d="M482.6,252.6c2.8,5.2,7,12.3,12.9,14.2c6,1.9,9.1-3.3,10.8-8.3c0.2-0.5-1.3-0.4-1.5,0.2c-0.9,2.8-2.2,6.5-5.3,7.5
				c-2.5,0.8-5.4-1.5-7.2-3c-3.5-3-6.1-7.1-8.3-11.2C483.7,251.6,482.3,252.2,482.6,252.6L482.6,252.6z"/>
		</g>
	</g>
	<g display="inline">
		<g>
			<path d="M481.1,242.5c-2.8,1-4.5,3.9-4.6,6.8c0,3.4,3,3.7,5.5,2.8c1-0.4,0.1-0.8-0.6-0.6c-2.4,0.9-3.7-0.8-3.4-3.1
				c0.2-2.1,1.5-4.4,3.7-5.1C482.7,242.8,481.8,242.2,481.1,242.5L481.1,242.5z"/>
		</g>
	</g>
	<g display="inline">
		<g>
			<path d="M479.9,238c-10.9-13.4,17.8-28.7,21.6-18.1c0.2,0.4,1.6-0.1,1.5-0.4c-4.1-11.6-36.3,4.4-24.4,19
				C478.7,238.9,480.2,238.4,479.9,238L479.9,238z"/>
		</g>
	</g>
	<g display="inline">
		<g>
			<path d="M484.5,226.4c3.4,5.4,16.4,2.2,17.7-3.7c0.2-0.5-1.4-0.3-1.5,0.2c-1.1,5.2-11.9,7.6-14.9,3
				C485.5,225.4,484.1,225.9,484.5,226.4L484.5,226.4z"/>
		</g>
	</g>
	<g display="inline">
		<g>
			<path d="M448.1,288.1c3.5,12.1,8.1,23.8,11.6,35.9c1.6,5.7,2.9,11.3,4.4,17.1c1.6,6.3,3.1,12.7,3,19.2c0,0.8,1.5,0.5,1.5-0.2
				c0.2-11.4-3.8-22.7-6.7-33.7c-3.3-13.2-8.5-25.7-12.2-38.7C449.4,287.1,447.9,287.5,448.1,288.1L448.1,288.1z"/>
		</g>
	</g>
	<g display="inline">
		<g>
			<path d="M544.1,272.5c-9,10.4-10.1,25.6-11.1,38.6c-1.4,18.4-4.3,36.2-9,54.1c-0.2,0.5,1.4,0.2,1.5-0.2c4.5-17.2,7.6-34.3,8.9-52
				c1-13.6,1.7-29.7,11.1-40.5C545.9,271.9,544.4,272.1,544.1,272.5L544.1,272.5z"/>
		</g>
	</g>
	<g display="inline">
		<g>
			<path d="M467,360.7c6.3,0.6,10.7,6.3,13.8,11.2c1.3,2.1,2.2,4.1,2.8,6.3c0.5,1.8,0.8,3.4,2,4.9c4.1,5.3,10.7-7,12.7-9.1
				c0.6-0.6-0.8-0.6-1.2-0.2c-2.3,2.5-4.2,5.4-6.4,8c-4.1,4.7-5.4-3.9-6.3-6.6c-2.5-6.8-9.2-14.7-16.8-15.5
				C467,359.7,466,360.6,467,360.7L467,360.7z"/>
		</g>
	</g>
	<g display="inline">
		<g>
			<path d="M498.2,379.9c12.4,6.1,17.3-8,22-16.7c0.4-0.7-1.1-0.6-1.4-0.1c-4.1,7.5-8.3,21.5-19.5,16
				C498.9,378.9,497.6,379.6,498.2,379.9L498.2,379.9z"/>
		</g>
	</g>
	<g display="inline">
		<g>
			<path d="M444.4,292.3c2.7,18.2-4.9,35.4-11.5,52c-6,15.2-2.7,32.4-9.6,47.4c-0.4,0.8,1.1,0.7,1.4,0.2c7.1-15.3,3.9-33,10.1-48.7
				c6.5-16.4,13.7-33.4,11-51.3C445.8,291.2,444.2,291.6,444.4,292.3L444.4,292.3z"/>
		</g>
	</g>
	<g display="inline">
		<g>
			<path d="M459.2,332.7c1.1,10.9-0.9,22.5-5.5,32.4c-4.1,8.7-10.1,17.5-10.4,27.5c0,0.7,1.5,0.4,1.5-0.2c0.3-10.5,7-19.7,11.1-29
				c4.2-9.5,5.9-20.8,4.8-31.1C460.6,331.7,459.2,332,459.2,332.7L459.2,332.7z"/>
		</g>
	</g>
	<g display="inline">
		<g>
			<path d="M424,395.1c5-6.3,12.8-5.9,20.1-5.9c0.6,0,1.5-0.8,0.5-0.8c-8.2,0-16.5-0.2-22.1,6.7C422.1,395.6,423.7,395.5,424,395.1
				L424,395.1z"/>
		</g>
	</g>
	<g display="inline">
		<g>
			<path d="M530.4,332c2,2.8,5.5,4.4,7,7.3c1.5,3.1,1.1,7.1,1.7,10.5c1.4,8.7,0.4,17.8-1.7,26.4c-0.2,0.8,1.4,0.5,1.5-0.1
				c2.1-8.7,2.8-17.7,1.7-26.7c-0.5-3.5-0.5-7.1-1.7-10.5c-1.1-3.2-5.2-5-7.1-7.6C531.4,330.8,530,331.4,530.4,332L530.4,332z"/>
		</g>
	</g>
	<g display="inline">
		<g>
			<path d="M539.1,347.5c2.3-2.4,5.6-3.8,9-4.1c0.2,0,0.5,0,0.6,0c1.1,0.1,1.2,0.2,0.6,0.2c-0.5,0.7-1.3,1.3-2,1.8
				c-1.4,1.1-3.1,1.8-4.7,2.5c-0.9,0.4-0.1,1.2,0.7,0.8c3-1.3,5.7-2.8,7.7-5.4c0.1-0.2,0.2-0.4,0.1-0.5c-1.3-1.3-4.1-0.5-5.7-0.1
				c-2.8,0.7-5.5,2.2-7.5,4.3C537.3,347.7,538.6,348,539.1,347.5L539.1,347.5z"/>
		</g>
	</g>
	<g display="inline">
		<g>
			<path d="M542.9,274.8c2.1,20.5,14.5,38.7,14.5,59.5c0,0.8,1.5,0.5,1.5-0.2c0.1-21-12.3-39.2-14.5-59.8
				C544.4,273.8,542.8,274.1,542.9,274.8L542.9,274.8z"/>
		</g>
	</g>
	<g display="inline">
		<g>
			<path d="M551.3,390.1c5-6.7,5.9-15.2,7.4-23.2c2-10.2,1.8-20.3,0.5-30.6c-0.1-0.6-1.5-0.3-1.5,0.4c1.2,9.7,1.4,19.2-0.2,28.8
				c-1.3,8.1-2.4,17.4-7.4,24.1C549.6,390.4,551,390.6,551.3,390.1L551.3,390.1z"/>
		</g>
	</g>
	<g display="inline">
		<g>
			<path d="M540,377.3c0.5,0,1.6-0.7,0.6-0.7C540.2,376.6,539,377.3,540,377.3L540,377.3z"/>
		</g>
	</g>
	<g display="inline">
		<g>
			<path d="M539.7,376.3c6.1-1.4,7,11.3,8.8,15c0.3,0.6,1.7,0.1,1.4-0.6c-2.4-4.7-2.5-17.1-10.5-15.4
				C538.6,375.5,538.8,376.5,539.7,376.3L539.7,376.3z"/>
		</g>
	</g>
	<g display="inline">
		<g>
			<path d="M463,366.3c-7.3,3.4-15,11.5-9,19.4c0.2,0.4,1.7-0.2,1.4-0.5c-5.7-7.4,1.1-15.2,8.1-18.4
				C464.5,366.3,463.6,366,463,366.3L463,366.3z"/>
		</g>
	</g>
	<g display="inline">
		<g>
			<path d="M452.8,391.4c-5.7,3.7-13.3,6.3-17.2,12.2c-4.4,6.6-5.4,14.5-6.2,22.3c-1.8,18.1,1.2,35,8.7,51.6
				c0.3,0.6,1.8,0.2,1.5-0.4c-7-15.7-10.6-32-8.9-49.2c0.7-7.3,1.5-14.6,4.7-21.3c3.6-7.6,11.9-10.4,18.4-14.7
				C454.6,391.5,453.3,391,452.8,391.4L452.8,391.4z"/>
		</g>
	</g>
	<g display="inline">
		<g>
			<path d="M429.2,459.3c-2.7,5.7-5.2,11.3-6.1,17.6c-1,6.6,0.6,13,3.3,19c2.8,6.3,6.3,12.2,9,18.5c2.3,5.4,4.2,11.1,8.3,15.5
				c0.2,0.2,1.6-0.3,1.4-0.5c-4.1-4.3-6-10-8.3-15.4c-2.4-5.9-5.9-11.2-8.4-17.1c-2.5-6-4.4-11.5-4.1-18.1
				c0.3-6.9,3.4-13.5,6.3-19.7C430.8,458.9,429.4,459,429.2,459.3L429.2,459.3z"/>
		</g>
	</g>
	<g display="inline">
		<g>
			<path d="M506.7,462.6c-4,4.5-7,9.7-11.1,14.1c-4.4,4.5-9.1,8.7-14.1,12.5c-6.4,4.9-13.5,5.8-21.3,5.4c-3.9-0.2-8-0.4-11.6,1.1
				c-1,0.4-0.1,0.5,0.5,0.3c5.4-2.1,12.2-0.4,17.9-0.8c4.4-0.2,8.6-1.8,12.5-4.1c5.8-3.3,10.8-8.2,15.5-12.9c5-4.9,8.4-10.8,13.1-16
				C508.3,462.1,507,462.3,506.7,462.6L506.7,462.6z"/>
		</g>
	</g>
	<g display="inline">
		<g>
			<path d="M479.6,495.2c-1.3,9.3-4.8,18.1-10.3,25.8c-4.7,6.6-12.5,8.3-19.4,11.8c-0.9,0.5,0.5,0.5,0.8,0.3
				c6.8-3.4,14-5.2,19.1-11.2c6.3-7.3,9.9-17.4,11.2-26.9C481.1,494.5,479.7,494.8,479.6,495.2L479.6,495.2z"/>
		</g>
	</g>
	<g display="inline">
		<g>
			<path d="M446.2,537.6c3.4,9-9.6,14.2-16.6,15c-1.6,0.2-2.1,1.2-2.4,2.7c-0.3,2.5,0.8,4.2,3,5.2c0.6,0.3,1.7-0.6,0.8-1
				c-1.5-0.5-2.3-1.6-2.3-3.2c-0.2-1.1,0.2-2,1.2-2.6c0.8-0.1,1.5-0.1,2.2-0.4c1.6-0.6,3.5-0.6,5-1.4c1.5-0.7,2.8-1.6,4.2-2.5
				c4.7-3.3,8.5-6.1,6.2-12.2C447.4,536.5,446,536.9,446.2,537.6L446.2,537.6z"/>
		</g>
	</g>
	<g display="inline">
		<g>
			<path d="M459.2,537.6c0.9,4.5,5,7.4,7,11.5c2.8,5.5-0.2,10.1-5.5,12.5c-0.9,0.4-0.1,1,0.6,0.7c3.8-1.7,7.8-4.7,7.4-9.3
				c-0.5-6.5-6.9-9.6-8.1-15.7C460.5,536.6,459.1,537,459.2,537.6L459.2,537.6z"/>
		</g>
	</g>
	<g display="inline">
		<g>
			<path d="M513.3,463.8c-0.8-2.3-1.1-4.7,2.2-4.8c1.7,0,3.4,0.5,5,1c4.1,1.3,6.8,4.2,9.8,7.1c2.7,2.6,5.4,5.2,9.3,5.8
				c3.6,0.6,7-1.5,9.6-3.6c0.7-0.5-0.8-0.6-1.2-0.3c-3.6,2.8-7.2,4-11.2,1.6c-2.4-1.4-4.5-3.7-6.5-5.6c-2.8-2.7-5.1-4.7-8.7-5.9
				c-4.5-1.6-12.2-1.8-9.6,5C512,464.8,513.5,464.3,513.3,463.8L513.3,463.8z"/>
		</g>
	</g>
	<g display="inline">
		<g>
			<path d="M538.5,483c-1,3.8-0.5,9,1.5,12.5c2.3,3.7,6,3,9.1,0.5c0.7-0.5-0.8-0.5-1.2-0.2c-7.4,5.9-9.2-8.3-8-12.9
				C540.1,482.3,538.6,482.5,538.5,483L538.5,483z"/>
		</g>
	</g>
	<g display="inline">
		<g>
			<path d="M540.7,500.1c0.5,10.6,5.9,22.4,18.1,21.7c0.8-0.1,1.2-0.9,0.2-0.8c-11.6,0.7-16.3-11.6-16.8-21.3
				C542.2,499.3,540.7,499.6,540.7,500.1L540.7,500.1z"/>
		</g>
	</g>
	<g display="inline">
		<g>
			<path d="M524,366.7c1.5,6.7,5,11.6,9.7,16.4c6.2,6.3,9.6,14.9,14.8,22c4.9,6.7,9.9,12.7,13.5,20.2c2.5,5.1,5.5,10.9,11.1,13.2
				c0.5,0.2,1.8-0.5,1.1-0.7c-6-2.4-9-9.1-11.6-14.5c-3.2-6.5-7.6-11.9-12-17.7c-5.1-6.6-8.6-14.2-13.8-20.9
				c-2.1-2.8-4.7-5.1-6.8-7.9c-2.3-3.1-3.7-6.7-4.5-10.4C525.4,365.9,523.9,366.2,524,366.7L524,366.7z"/>
		</g>
	</g>
	<g display="inline">
		<g>
			<path d="M548.4,436.9c7.2-1.4,15.5-0.1,22.1,3c7.4,3.4,8.8,11.2,7.7,18.6c-2.3,16.3-11.7,30.4-14.5,46.5
				c-0.1,0.4,1.4,0.1,1.5-0.2c3.1-17.5,14.2-32.7,14.9-50.9c0.7-15.9-19.1-19.8-31.4-17.5C548,436.4,547.4,437.1,548.4,436.9
				L548.4,436.9z"/>
		</g>
	</g>
	<g display="inline">
		<g>
			<path d="M568.5,512.3c0,5,4.1,8.5,4.1,13.3c0,5.4-8.5,9-12.9,9.1c-0.8,0-1.2,0.9-0.2,0.9c4.6-0.2,10.1-2.6,12.9-6.3
				c4.4-6-2.4-10.9-2.4-17.1C570,511.4,568.5,511.7,568.5,512.3L568.5,512.3z"/>
		</g>
	</g>
	<g display="inline">
		<g>
			<path d="M552.9,526.7c-2.6,3.7-6.1,7-7.6,11.3c-1.7,4.7,3,6.5,6.5,7.6c9.5,2.8,18.4,8,28.1,10c3.7,0.8,12.5,0.2,9.6-6
				c-1.5-3.1-5.4-5.4-8.1-7.3c-3.4-2.4-8-5-9.9-8.9c-0.2-0.4-1.6,0.2-1.5,0.4c2.8,5.4,9.7,8.6,14.3,12.2c2.2,1.8,4.9,4.1,4,7.2
				c-1.2,4.3-9,1.5-11.9,0.5c-8-2.6-15.3-6.5-23.4-8.7c-4.8-1.3-8-3.7-5.7-8.8c1.6-3.7,4.7-6.5,7-9.8
				C554.5,526.4,553.2,526.4,552.9,526.7L552.9,526.7z"/>
		</g>
	</g>
	<g display="inline">
		<g>
			<path d="M536.6,379.7c0.1,3-1.5,5.2-3.1,7.6c-1.4,2.2-2.2,4.6-2.7,7.1c-0.8,4.7,0,10.3,0.2,15.1c0.3,8,10.4,10.9,12.2,2.1
				c0.1-0.5-1.4-0.2-1.5,0.2c-0.7,3.1-2.8,6-6.2,3.5c-1.8-1.3-2.7-3.1-3.1-5.3c-0.6-3.4-0.2-7.3-0.4-10.9c-0.2-4.1,0.5-7.6,2.3-11.2
				c1.5-3,3.7-5.2,3.6-8.7C538.1,378.9,536.6,379.2,536.6,379.7L536.6,379.7z"/>
		</g>
	</g>
	<g display="inline">
		<g>
			<path d="M544.8,388.8c0.1,6.3,1.4,13.2-2.4,18.6c-0.5,0.8,0.8,1.1,1.2,0.5c4.1-5.7,2.8-12.6,2.8-19.2
				C546.3,387.9,544.8,388.1,544.8,388.8L544.8,388.8z"/>
		</g>
	</g>
	<g display="inline">
		<g>
			<path d="M424.4,397.2c-2.8,6.4-9.6,16.3-4.7,23.2c1.7,2.4,5,1.4,7.2,0.2c3.7-2,3.8-5.7,4.5-9.3c0.2-0.7-1.4-0.5-1.5,0.2
				c-0.5,2.6-0.5,5.2-2.3,7.3c-2.5,3-6.5,2.1-7.7-1.3c-0.5-1.4-0.4-2.9-0.2-4.4c0.6-5.6,3.9-10.7,6.1-15.8
				C426.1,396.6,424.7,396.7,424.4,397.2L424.4,397.2z"/>
		</g>
	</g>
	<g display="inline">
		<g>
			<path d="M432.9,399.4c0.2,2,0.9,4,2.7,5c1.3,0.8,3,0.5,4.3-0.1c4.3-2.1,3.9-7.7,2.3-11.3c-0.2-0.5-1.7,0-1.5,0.4
				c1.4,3.1,2.1,7.6-1,10.1c-3,2.4-5-2.3-5.4-4.5C434.3,398.5,432.8,398.8,432.9,399.4L432.9,399.4z"/>
		</g>
	</g>
</g>
</svg>
